<svg width="48" height="48" viewBox="0 0 48 48" fill="none" xmlns="http://www.w3.org/2000/svg">
<path d="M34 14H14C13.7348 14 13.4804 14.1054 13.2929 14.2929C13.1054 14.4804 13 14.7348 13 15V23C13 23.2652 13.1054 23.5196 13.2929 23.7071C13.4804 23.8946 13.7348 24 14 24H17V33C17 33.2652 17.1054 33.5196 17.2929 33.7071C17.4804 33.8946 17.7348 34 18 34H30C30.2652 34 30.5196 33.8946 30.7071 33.7071C30.8946 33.5196 31 33.2652 31 33V24H34C34.2652 24 34.5196 23.8946 34.7071 23.7071C34.8946 23.5196 35 23.2652 35 23V15C35 14.7348 34.8946 14.4804 34.7071 14.2929C34.5196 14.1054 34.2652 14 34 14ZM19 32V30C19.5304 30 20.0391 30.2107 20.4142 30.5858C20.7893 30.9609 21 31.4696 21 32H19ZM29 32H27C27 31.4696 27.2107 30.9609 27.5858 30.5858C27.9609 30.2107 28.4696 30 29 30V32ZM29 28C27.9391 28 26.9217 28.4214 26.1716 29.1716C25.4214 29.9217 25 30.9391 25 32H23C23 30.9391 22.5786 29.9217 21.8284 29.1716C21.0783 28.4214 20.0609 28 19 28V20H29V28ZM33 22H31V19C31 18.7348 30.8946 18.4804 30.7071 18.2929C30.5196 18.1054 30.2652 18 30 18H18C17.7348 18 17.4804 18.1054 17.2929 18.2929C17.1054 18.4804 17 18.7348 17 19V22H15V16H33V22ZM24 27C24.5933 27 25.1734 26.8241 25.6667 26.4944C26.1601 26.1648 26.5446 25.6962 26.7716 25.1481C26.9987 24.5999 27.0581 23.9967 26.9424 23.4147C26.8266 22.8328 26.5409 22.2982 26.1213 21.8787C25.7018 21.4591 25.1672 21.1734 24.5853 21.0576C24.0033 20.9419 23.4001 21.0013 22.8519 21.2284C22.3038 21.4554 21.8352 21.8399 21.5056 22.3333C21.1759 22.8266 21 23.4067 21 24C21 24.7956 21.3161 25.5587 21.8787 26.1213C22.4413 26.6839 23.2044 27 24 27ZM24 23C24.1978 23 24.3911 23.0586 24.5556 23.1685C24.72 23.2784 24.8482 23.4346 24.9239 23.6173C24.9996 23.8 25.0194 24.0011 24.9808 24.1951C24.9422 24.3891 24.847 24.5673 24.7071 24.7071C24.5673 24.847 24.3891 24.9422 24.1951 24.9808C24.0011 25.0194 23.8 24.9996 23.6173 24.9239C23.4346 24.8482 23.2784 24.72 23.1685 24.5556C23.0586 24.3911 23 24.1978 23 24C23 23.7348 23.1054 23.4804 23.2929 23.2929C23.4804 23.1054 23.7348 23 24 23Z" fill="white"/>
</svg>
