<svg width="48" height="48" viewBox="0 0 48 48" fill="none" xmlns="http://www.w3.org/2000/svg">
<path d="M32.8573 29.4004L30.1498 24.5955C30.7039 23.5498 30.9925 22.3775 30.9891 21.1869C30.9891 19.2808 30.2523 17.4528 28.9407 16.105C27.6292 14.7572 25.8504 14 23.9956 14C22.1408 14 20.362 14.7572 19.0505 16.105C17.7389 17.4528 17.0021 19.2808 17.0021 21.1869C16.9987 22.3775 17.2873 23.5498 17.8413 24.5955L15.1339 29.4004C15.046 29.5568 14.9998 29.7342 15 29.9148C15.0002 30.0953 15.0467 30.2727 15.1348 30.4289C15.223 30.5851 15.3497 30.7146 15.5021 30.8044C15.6545 30.8942 15.8273 30.9412 16.003 30.9404H18.8704L20.329 33.4661C20.3782 33.5498 20.4387 33.6259 20.5088 33.692C20.694 33.8754 20.941 33.9784 21.1982 33.9794H21.3381C21.4889 33.9582 21.633 33.9019 21.7594 33.8147C21.8858 33.7275 21.9912 33.6118 22.0674 33.4764L23.9956 30.0677L25.9238 33.5072C26.0011 33.6407 26.107 33.7544 26.2333 33.8398C26.3596 33.9251 26.5032 33.9799 26.6531 34H26.793C27.0537 34.0016 27.3046 33.8984 27.4923 33.7125C27.5595 33.6502 27.6168 33.5774 27.6622 33.4969L29.1208 30.9712H31.9881C32.1642 30.972 32.3373 30.9249 32.4899 30.8347C32.6426 30.7446 32.7693 30.6146 32.8573 30.4579C32.9507 30.2982 33 30.1154 33 29.9291C33 29.7429 32.9507 29.5601 32.8573 29.4004ZM21.1882 30.9712L20.299 29.4415C20.2115 29.2897 20.0873 29.1637 19.9386 29.0755C19.7898 28.9874 19.6215 28.9402 19.4498 28.9384H17.7214L19.1501 26.3922C20.1339 27.3664 21.3739 28.0231 22.7168 28.2813L21.1882 30.9712ZM23.9956 26.3203C23.0076 26.3203 22.0418 26.0192 21.2203 25.4552C20.3988 24.8911 19.7586 24.0894 19.3805 23.1513C19.0024 22.2133 18.9035 21.1812 19.0962 20.1854C19.289 19.1896 19.7647 18.2749 20.4633 17.5569C21.162 16.839 22.052 16.3501 23.021 16.152C23.99 15.9539 24.9944 16.0556 25.9072 16.4441C26.82 16.8327 27.6002 17.4907 28.1491 18.3349C28.698 19.179 28.9909 20.1715 28.9909 21.1869C28.9909 22.5483 28.4646 23.854 27.5278 24.8168C26.591 25.7795 25.3204 26.3203 23.9956 26.3203ZM28.5413 28.9384C28.3697 28.9402 28.2013 28.9874 28.0526 29.0755C27.9038 29.1637 27.7797 29.2897 27.6921 29.4415L26.803 30.9712L25.2844 28.2505C26.6226 27.987 27.858 27.3309 28.8411 26.3614L30.2697 28.9076L28.5413 28.9384Z" fill="#545656"/>
</svg>
