<svg width="48" height="48" viewBox="0 0 48 48" fill="none" xmlns="http://www.w3.org/2000/svg">
<path d="M33 32H32V17C32 16.7348 31.8946 16.4804 31.7071 16.2929C31.5196 16.1054 31.2652 16 31 16C30.7348 16 30.4804 16.1054 30.2929 16.2929C30.1054 16.4804 30 16.7348 30 17V32H28V25C28 24.7348 27.8946 24.4804 27.7071 24.2929C27.5196 24.1054 27.2652 24 27 24C26.7348 24 26.4804 24.1054 26.2929 24.2929C26.1054 24.4804 26 24.7348 26 25V32H24V21C24 20.7348 23.8946 20.4804 23.7071 20.2929C23.5196 20.1054 23.2652 20 23 20C22.7348 20 22.4804 20.1054 22.2929 20.2929C22.1054 20.4804 22 20.7348 22 21V32H20V29C20 28.7348 19.8946 28.4804 19.7071 28.2929C19.5196 28.1054 19.2652 28 19 28C18.7348 28 18.4804 28.1054 18.2929 28.2929C18.1054 28.4804 18 28.7348 18 29V32H16V15C16 14.7348 15.8946 14.4804 15.7071 14.2929C15.5196 14.1054 15.2652 14 15 14C14.7348 14 14.4804 14.1054 14.2929 14.2929C14.1054 14.4804 14 14.7348 14 15V33C14 33.2652 14.1054 33.5196 14.2929 33.7071C14.4804 33.8946 14.7348 34 15 34H33C33.2652 34 33.5196 33.8946 33.7071 33.7071C33.8946 33.5196 34 33.2652 34 33C34 32.7348 33.8946 32.4804 33.7071 32.2929C33.5196 32.1054 33.2652 32 33 32Z" fill="white"/>
</svg>
