<svg width="48" height="48" viewBox="0 0 48 48" fill="none" xmlns="http://www.w3.org/2000/svg">
<path d="M23.9364 14C21.3565 14.0073 18.878 14.9989 17.0127 16.77V15C17.0127 14.7348 16.9067 14.4804 16.718 14.2929C16.5292 14.1054 16.2733 14 16.0064 14C15.7395 14 15.4835 14.1054 15.2948 14.2929C15.106 14.4804 15 14.7348 15 15V19.5C15 19.7652 15.106 20.0196 15.2948 20.2071C15.4835 20.3946 15.7395 20.5 16.0064 20.5H20.535C20.8019 20.5 21.0578 20.3946 21.2466 20.2071C21.4353 20.0196 21.5413 19.7652 21.5413 19.5C21.5413 19.2348 21.4353 18.9804 21.2466 18.7929C21.0578 18.6054 20.8019 18.5 20.535 18.5H18.1197C19.0372 17.537 20.1812 16.8158 21.4489 16.4011C22.7165 15.9865 24.068 15.8915 25.3817 16.1247C26.6954 16.3579 27.9303 16.9119 28.975 17.737C30.0198 18.5621 30.8418 19.6323 31.3671 20.8513C31.8923 22.0704 32.1044 23.4001 31.9842 24.7208C31.8639 26.0415 31.4152 27.3118 30.6783 28.4174C29.9414 29.5231 28.9394 30.4293 27.7626 31.0547C26.5858 31.68 25.271 32.0049 23.9364 32C23.6695 32 23.4136 32.1054 23.2248 32.2929C23.0361 32.4804 22.9301 32.7348 22.9301 33C22.9301 33.2652 23.0361 33.5196 23.2248 33.7071C23.4136 33.8946 23.6695 34 23.9364 34C26.6055 34 29.1652 32.9464 31.0525 31.0711C32.9397 29.1957 34 26.6522 34 24C34 21.3478 32.9397 18.8043 31.0525 16.9289C29.1652 15.0536 26.6055 14 23.9364 14ZM23.9364 20C23.6695 20 23.4136 20.1054 23.2248 20.2929C23.0361 20.4804 22.9301 20.7348 22.9301 21V24C22.9301 24.2652 23.0361 24.5196 23.2248 24.7071C23.4136 24.8946 23.6695 25 23.9364 25H25.9492C26.2161 25 26.472 24.8946 26.6608 24.7071C26.8495 24.5196 26.9555 24.2652 26.9555 24C26.9555 23.7348 26.8495 23.4804 26.6608 23.2929C26.472 23.1054 26.2161 23 25.9492 23H24.9428V21C24.9428 20.7348 24.8368 20.4804 24.648 20.2929C24.4593 20.1054 24.2033 20 23.9364 20Z" fill="white"/>
</svg>
