<svg width="48" height="48" viewBox="0 0 48 48" fill="none" xmlns="http://www.w3.org/2000/svg">
<path d="M31 24H24V17C24 16.4 23.6 16 23 16C18 16 14 20 14 25C14 30 18 34 23 34C28 34 32 30 32 25C32 24.4 31.6 24 31 24ZM24 31.9C20.2 32.5 16.6 29.8 16.1 26C15.5 22.2 18.2 18.6 22 18.1V25C22 25.6 22.4 26 23 26H29.9C29.5 29.1 27.1 31.5 24 31.9ZM27 14C26.4 14 26 14.4 26 15V21C26 21.6 26.4 22 27 22H33C33.6 22 34 21.6 34 21C34 17.1 30.9 14 27 14ZM28 20V16.1C30 16.5 31.5 18 31.9 20H28Z" fill="white"/>
</svg>
