<svg width="48" height="48" viewBox="0 0 48 48" fill="none" xmlns="http://www.w3.org/2000/svg">
<path d="M24 14C22.0222 14 20.0888 14.5865 18.4443 15.6853C16.7998 16.7841 15.5181 18.3459 14.7612 20.1732C14.0043 22.0004 13.8063 24.0111 14.1922 25.9509C14.578 27.8907 15.5304 29.6725 16.9289 31.0711C18.3275 32.4696 20.1093 33.422 22.0491 33.8079C23.9889 34.1937 25.9996 33.9957 27.8268 33.2388C29.6541 32.4819 31.2159 31.2002 32.3147 29.5557C33.4135 27.9112 34 25.9778 34 24C34 22.6868 33.7413 21.3864 33.2388 20.1732C32.7363 18.9599 31.9997 17.8575 31.0711 16.9289C30.1425 16.0003 29.0401 15.2638 27.8268 14.7612C26.6136 14.2587 25.3132 14 24 14ZM25 31.93V31C25 30.7348 24.8946 30.4804 24.7071 30.2929C24.5196 30.1054 24.2652 30 24 30C23.7348 30 23.4804 30.1054 23.2929 30.2929C23.1054 30.4804 23 30.7348 23 31V31.93C21.24 31.7068 19.6041 30.9049 18.3496 29.6504C17.0951 28.3959 16.2932 26.76 16.07 25H17C17.2652 25 17.5196 24.8946 17.7071 24.7071C17.8946 24.5196 18 24.2652 18 24C18 23.7348 17.8946 23.4804 17.7071 23.2929C17.5196 23.1054 17.2652 23 17 23H16.07C16.2932 21.24 17.0951 19.6041 18.3496 18.3496C19.6041 17.0951 21.24 16.2932 23 16.07V17C23 17.2652 23.1054 17.5196 23.2929 17.7071C23.4804 17.8946 23.7348 18 24 18C24.2652 18 24.5196 17.8946 24.7071 17.7071C24.8946 17.5196 25 17.2652 25 17V16.07C26.76 16.2932 28.3959 17.0951 29.6504 18.3496C30.9049 19.6041 31.7068 21.24 31.93 23H31C30.7348 23 30.4804 23.1054 30.2929 23.2929C30.1054 23.4804 30 23.7348 30 24C30 24.2652 30.1054 24.5196 30.2929 24.7071C30.4804 24.8946 30.7348 25 31 25H31.93C31.7068 26.76 30.9049 28.3959 29.6504 29.6504C28.3959 30.9049 26.76 31.7068 25 31.93ZM27.14 19.55L22.14 21.67C21.9069 21.771 21.721 21.9569 21.62 22.19L19.5 27.19C19.4212 27.3734 19.3992 27.5761 19.4366 27.7722C19.474 27.9682 19.5692 28.1485 19.71 28.29C19.8946 28.4784 20.1462 28.5862 20.41 28.59C20.5484 28.5901 20.685 28.5594 20.81 28.5L25.81 26.38C26.0431 26.279 26.229 26.0931 26.33 25.86L28.45 20.86C28.5273 20.6768 28.5482 20.4746 28.51 20.2795C28.4718 20.0843 28.3763 19.9049 28.2357 19.7643C28.0951 19.6237 27.9157 19.5282 27.7205 19.49C27.5254 19.4518 27.3232 19.4727 27.14 19.55ZM24.65 24.65L22.37 25.65L23.37 23.37L25.65 22.37L24.65 24.65Z" fill="white"/>
</svg>
