<svg width="48" height="48" viewBox="0 0 48 48" fill="none" xmlns="http://www.w3.org/2000/svg">
<path d="M19.5 28C19.8978 28 20.2794 27.842 20.5607 27.5607C20.842 27.2794 21 26.8978 21 26.5C21.0049 26.4501 21.0049 26.3999 21 26.35L23.79 23.56H24.02H24.25L25.86 25.17C25.86 25.17 25.86 25.22 25.86 25.25C25.86 25.6478 26.018 26.0294 26.2993 26.3107C26.5806 26.592 26.9622 26.75 27.36 26.75C27.7578 26.75 28.1394 26.592 28.4207 26.3107C28.702 26.0294 28.86 25.6478 28.86 25.25V25.17L32.5 21.5C32.7967 21.5 33.0867 21.412 33.3334 21.2472C33.58 21.0824 33.7723 20.8481 33.8858 20.574C33.9993 20.2999 34.0291 19.9983 33.9712 19.7074C33.9133 19.4164 33.7704 19.1491 33.5607 18.9393C33.3509 18.7296 33.0836 18.5867 32.7926 18.5288C32.5017 18.4709 32.2001 18.5006 31.926 18.6142C31.6519 18.7277 31.4176 18.92 31.2528 19.1666C31.088 19.4133 31 19.7033 31 20C30.9951 20.0499 30.9951 20.1001 31 20.15L27.39 23.76H27.23L25.5 22C25.5 21.6022 25.342 21.2206 25.0607 20.9393C24.7794 20.658 24.3978 20.5 24 20.5C23.6022 20.5 23.2206 20.658 22.9393 20.9393C22.658 21.2206 22.5 21.6022 22.5 22L19.5 25C19.1022 25 18.7206 25.158 18.4393 25.4393C18.158 25.7206 18 26.1022 18 26.5C18 26.8978 18.158 27.2794 18.4393 27.5607C18.7206 27.842 19.1022 28 19.5 28ZM33 32H16V15C16 14.7348 15.8946 14.4804 15.7071 14.2929C15.5196 14.1054 15.2652 14 15 14C14.7348 14 14.4804 14.1054 14.2929 14.2929C14.1054 14.4804 14 14.7348 14 15V33C14 33.2652 14.1054 33.5196 14.2929 33.7071C14.4804 33.8946 14.7348 34 15 34H33C33.2652 34 33.5196 33.8946 33.7071 33.7071C33.8946 33.5196 34 33.2652 34 33C34 32.7348 33.8946 32.4804 33.7071 32.2929C33.5196 32.1054 33.2652 32 33 32Z" fill="#545656"/>
</svg>
