<svg width="48" height="48" viewBox="0 0 48 48" fill="none" xmlns="http://www.w3.org/2000/svg">
<path d="M26.81 24.28C27.443 23.6002 27.7996 22.7088 27.81 21.78C27.81 20.7775 27.4118 19.816 26.7029 19.1071C25.994 18.3982 25.0325 18 24.03 18C23.0275 18 22.066 18.3982 21.3571 19.1071C20.6482 19.816 20.25 20.7775 20.25 21.78C20.2604 22.7088 20.617 23.6002 21.25 24.28C20.3687 24.7189 19.6102 25.3699 19.0429 26.1746C18.4756 26.9793 18.1172 27.9124 18 28.89C17.9708 29.1552 18.0482 29.4212 18.2151 29.6293C18.382 29.8375 18.6248 29.9708 18.89 30C19.1552 30.0292 19.4212 29.9518 19.6293 29.7849C19.8375 29.618 19.9708 29.3752 20 29.11C20.1193 28.1411 20.5888 27.2494 21.3201 26.6027C22.0513 25.956 22.9938 25.599 23.97 25.599C24.9462 25.599 25.8887 25.956 26.6199 26.6027C27.3512 27.2494 27.8207 28.1411 27.94 29.11C27.9678 29.3664 28.0936 29.6022 28.2911 29.768C28.4887 29.9339 28.7426 30.017 29 30H29.11C29.3721 29.9698 29.6117 29.8373 29.7766 29.6313C29.9414 29.4252 30.0181 29.1624 29.99 28.9C29.8815 27.9276 29.5344 26.997 28.9796 26.191C28.4248 25.3851 27.6796 24.7286 26.81 24.28ZM24 23.56C23.6479 23.56 23.3038 23.4556 23.0111 23.26C22.7184 23.0644 22.4902 22.7864 22.3555 22.4612C22.2208 22.1359 22.1855 21.778 22.2542 21.4327C22.3229 21.0875 22.4924 20.7703 22.7414 20.5213C22.9903 20.2724 23.3075 20.1029 23.6527 20.0342C23.998 19.9655 24.3559 20.0008 24.6812 20.1355C25.0064 20.2702 25.2844 20.4984 25.48 20.7911C25.6756 21.0838 25.78 21.4279 25.78 21.78C25.78 22.2521 25.5925 22.7048 25.2586 23.0387C24.9248 23.3725 24.4721 23.56 24 23.56ZM31 14H17C16.2044 14 15.4413 14.3161 14.8787 14.8787C14.3161 15.4413 14 16.2044 14 17V31C14 31.7956 14.3161 32.5587 14.8787 33.1213C15.4413 33.6839 16.2044 34 17 34H31C31.7956 34 32.5587 33.6839 33.1213 33.1213C33.6839 32.5587 34 31.7956 34 31V17C34 16.2044 33.6839 15.4413 33.1213 14.8787C32.5587 14.3161 31.7956 14 31 14ZM32 31C32 31.2652 31.8946 31.5196 31.7071 31.7071C31.5196 31.8946 31.2652 32 31 32H17C16.7348 32 16.4804 31.8946 16.2929 31.7071C16.1054 31.5196 16 31.2652 16 31V17C16 16.7348 16.1054 16.4804 16.2929 16.2929C16.4804 16.1054 16.7348 16 17 16H31C31.2652 16 31.5196 16.1054 31.7071 16.2929C31.8946 16.4804 32 16.7348 32 17V31Z" fill="#545656"/>
<circle cx="24" cy="25" r="1" fill="#545656"/>
<rect x="23" y="26" width="2" height="3" rx="1" fill="#545656"/>
</svg>
