<svg width="48" height="48" viewBox="0 0 48 48" fill="none" xmlns="http://www.w3.org/2000/svg">
<path d="M33 24.004H30V15.004C30.0007 14.8278 29.9548 14.6545 29.867 14.5017C29.7792 14.3489 29.6526 14.2221 29.5 14.134C29.348 14.0462 29.1755 14 29 14C28.8245 14 28.652 14.0462 28.5 14.134L25.5 15.854L22.5 14.134C22.348 14.0462 22.1755 14 22 14C21.8245 14 21.652 14.0462 21.5 14.134L18.5 15.854L15.5 14.134C15.348 14.0462 15.1755 14 15 14C14.8245 14 14.652 14.0462 14.5 14.134C14.3474 14.2221 14.2208 14.3489 14.133 14.5017C14.0452 14.6545 13.9993 14.8278 14 15.004V31.004C14 31.7996 14.3161 32.5627 14.8787 33.1253C15.4413 33.6879 16.2044 34.004 17 34.004H31C31.7957 34.004 32.5587 33.6879 33.1213 33.1253C33.6839 32.5627 34 31.7996 34 31.004V25.004C34 24.7388 33.8947 24.4844 33.7071 24.2969C33.5196 24.1093 33.2652 24.004 33 24.004ZM17 32.004C16.7348 32.004 16.4804 31.8986 16.2929 31.7111C16.1054 31.5235 16 31.2692 16 31.004V16.734L18 17.874C18.1543 17.9546 18.3259 17.9967 18.5 17.9967C18.6741 17.9967 18.8457 17.9546 19 17.874L22 16.154L25 17.874C25.1543 17.9546 25.3259 17.9967 25.5 17.9967C25.6741 17.9967 25.8457 17.9546 26 17.874L28 16.734V31.004C28.0027 31.3451 28.0636 31.6833 28.18 32.004H17ZM32 31.004C32 31.2692 31.8947 31.5235 31.7071 31.7111C31.5196 31.8986 31.2652 32.004 31 32.004C30.7348 32.004 30.4804 31.8986 30.2929 31.7111C30.1054 31.5235 30 31.2692 30 31.004V26.004H32V31.004Z" fill="#545656"/>
<path d="M18.6887 25.4903C18.4297 25.4903 18.2502 25.4458 18.1501 25.3566C18.05 25.2622 18 25.1468 18 25.0104C18 24.8951 18.0442 24.7875 18.1325 24.6879C18.2266 24.5882 18.4121 24.5384 18.6887 24.5384H18.777L18.362 22.7525C18.3444 22.6844 18.3355 22.6135 18.3355 22.5401C18.3414 22.4614 18.3591 22.388 18.3885 22.3198C18.4238 22.2517 18.4739 22.1913 18.5386 22.1389C18.6093 22.0864 18.7035 22.0497 18.8212 22.0287C19.039 21.9868 19.2244 22.0025 19.3775 22.0759C19.5364 22.1494 19.6306 22.2805 19.66 22.4693L20.0574 24.5384H20.7991L21.2671 22.4378C21.2907 22.3644 21.3613 22.2884 21.479 22.2097C21.6026 22.1258 21.7851 22.0838 22.0265 22.0838C22.2443 22.0838 22.4091 22.1258 22.521 22.2097C22.6328 22.2936 22.7005 22.3723 22.7241 22.4457L23.1744 24.5384H23.9161L24.3223 22.4772C24.3517 22.2779 24.443 22.1415 24.596 22.0681C24.7491 21.9894 24.9433 21.9789 25.1788 22.0366C25.2965 22.0628 25.3878 22.1022 25.4525 22.1546C25.5232 22.2071 25.5732 22.2674 25.6026 22.3356C25.638 22.4038 25.6556 22.4746 25.6556 22.548C25.6615 22.6162 25.6556 22.6844 25.638 22.7525L25.2141 24.5384H25.3289C25.5879 24.5384 25.7645 24.5882 25.8587 24.6879C25.9529 24.7823 26 24.8951 26 25.0262C26 25.1468 25.9558 25.2543 25.8675 25.3487C25.7851 25.4431 25.6056 25.4903 25.3289 25.4903H24.9845L24.5254 27.4493C24.496 27.5227 24.4606 27.5935 24.4194 27.6617C24.3841 27.7299 24.3311 27.7876 24.2605 27.8348C24.1957 27.8872 24.1104 27.9266 24.0044 27.9528C23.9043 27.9843 23.7778 28 23.6247 28C23.3363 28 23.1185 27.9502 22.9713 27.8505C22.8241 27.7509 22.7211 27.6224 22.6623 27.465L22.2472 25.4903H21.7351L21.3289 27.465C21.2759 27.6224 21.1729 27.7509 21.0199 27.8505C20.8727 27.9502 20.652 28 20.3576 28C20.1987 28 20.0662 27.9843 19.9603 27.9528C19.8602 27.9266 19.7778 27.8872 19.713 27.8348C19.6483 27.7876 19.5953 27.7299 19.5541 27.6617C19.5188 27.5988 19.4864 27.528 19.457 27.4493L18.9978 25.4903H18.6887ZM20.4106 26.3243L20.596 25.4903H20.2428L20.4106 26.3243ZM23.5629 26.3243L23.7219 25.4903H23.3775L23.5629 26.3243ZM21.894 24.5384H22.0795L21.9912 23.8146L21.894 24.5384Z" fill="#545656"/>
</svg>
