<svg width="48" height="48" viewBox="0 0 48 48" fill="none" xmlns="http://www.w3.org/2000/svg">
<path d="M29.2729 15.6556C28.4106 14.968 27.4009 14.4757 26.3173 14.2147C25.2338 13.9536 24.1038 13.9303 23.0099 14.1466C21.5532 14.4319 20.2168 15.1303 19.1702 16.1531C18.1235 17.176 17.4139 18.4772 17.1312 19.8917C16.9248 20.9523 16.9623 22.044 17.2411 23.0889C17.5198 24.1339 18.0329 25.1063 18.7439 25.9368C19.4036 26.6587 19.7818 27.5818 19.8127 28.5458V31.2729C19.8127 31.9962 20.109 32.6898 20.6365 33.2012C21.164 33.7127 21.8795 34 22.6255 34H26.3758C27.1218 34 27.8372 33.7127 28.3647 33.2012C28.8922 32.6898 29.1886 31.9962 29.1886 31.2729V28.7185C29.22 27.6542 29.6233 26.6317 30.3324 25.8187C31.5748 24.3285 32.1605 22.4232 31.9621 20.5168C31.7637 18.6104 30.7973 16.8569 29.2729 15.6374V15.6556ZM27.3134 31.2729C27.3134 31.514 27.2146 31.7452 27.0388 31.9157C26.8629 32.0862 26.6245 32.1819 26.3758 32.1819H22.6255C22.3768 32.1819 22.1383 32.0862 21.9625 31.9157C21.7867 31.7452 21.6879 31.514 21.6879 31.2729V30.3638H27.3134V31.2729ZM28.8791 24.6915C27.9364 25.7756 27.3864 27.1295 27.3134 28.5458H25.4382V25.8187C25.4382 25.5776 25.3394 25.3464 25.1636 25.1759C24.9878 25.0054 24.7493 24.9096 24.5006 24.9096C24.252 24.9096 24.0135 25.0054 23.8377 25.1759C23.6618 25.3464 23.563 25.5776 23.563 25.8187V28.5458H21.6879C21.6631 27.1532 21.1318 25.8139 20.1877 24.7642C19.5648 24.0406 19.146 23.1728 18.972 22.2456C18.798 21.3183 18.8748 20.3631 19.1949 19.4732C19.515 18.5832 20.0676 17.7889 20.7986 17.1676C21.5296 16.5464 22.4142 16.1194 23.3661 15.9283C24.1842 15.765 25.0296 15.7804 25.8408 15.9733C26.652 16.1662 27.4087 16.5319 28.056 17.0437C28.7033 17.5555 29.2249 18.2006 29.583 18.9323C29.941 19.6639 30.1266 20.4637 30.1261 21.2735C30.1331 22.5187 29.6921 23.7274 28.8791 24.6915Z" fill="#545656"/>
</svg>
