<svg width="48" height="48" viewBox="0 0 48 48" fill="none" xmlns="http://www.w3.org/2000/svg">
<path d="M22.9916 32H17.9968C17.7319 32 17.4778 31.8946 17.2905 31.7071C17.1031 31.5196 16.9979 31.2652 16.9979 31V17C16.9979 16.7348 17.1031 16.4804 17.2905 16.2929C17.4778 16.1054 17.7319 16 17.9968 16H23.9905V20C23.9905 20.2652 24.0958 20.5196 24.2831 20.7071C24.4704 20.8946 24.7245 21 24.9895 21H29.9842C30.1814 20.999 30.3739 20.9396 30.5375 20.8293C30.701 20.7189 30.8283 20.5626 30.9032 20.38C30.9797 20.1979 31.0006 19.9972 30.9633 19.8032C30.9259 19.6092 30.832 19.4306 30.6934 19.29L25.6987 14.29C25.6161 14.2122 25.5217 14.1481 25.419 14.1H25.3291C25.24 14.0561 25.1461 14.0226 25.0494 14H17.9968C17.202 14 16.4398 14.3161 15.8778 14.8787C15.3157 15.4413 15 16.2044 15 17V31C15 31.7956 15.3157 32.5587 15.8778 33.1213C16.4398 33.6839 17.202 34 17.9968 34H22.9916C23.2565 34 23.5106 33.8946 23.6979 33.7071C23.8853 33.5196 23.9905 33.2652 23.9905 33C23.9905 32.7348 23.8853 32.4804 23.6979 32.2929C23.5106 32.1054 23.2565 32 22.9916 32ZM25.9884 17.41L27.5767 19H25.9884V17.41Z" fill="white"/>
<path d="M22.9463 28.2017C22.6832 28.2298 22.4192 28.156 22.2117 27.9964C22.142 27.9285 22.0873 27.8475 22.0509 27.7584C22.0146 27.6693 21.9974 27.5739 22.0003 27.4781C22.0059 27.3019 22.0734 27.1328 22.1915 26.999C22.2933 26.9109 22.4133 26.8452 22.5436 26.8064C22.6739 26.7675 22.8113 26.7565 22.9463 26.7741H23.0671L22.5035 24.1143C22.4828 24.0077 22.4828 23.8982 22.5035 23.7916C22.5004 23.6802 22.5245 23.5696 22.5739 23.469C22.6186 23.3639 22.6875 23.2703 22.7752 23.1952C22.8859 23.1106 23.018 23.0566 23.1576 23.0387C23.4126 22.9694 23.6849 22.9938 23.9225 23.1072C24.0318 23.1659 24.124 23.2505 24.1909 23.353C24.2577 23.4555 24.2969 23.5727 24.3049 23.6938L24.8483 26.7741H25.8547L26.4887 23.645C26.551 23.5036 26.6564 23.3842 26.7906 23.3027C27.0105 23.1615 27.2727 23.0961 27.5354 23.1169C27.7758 23.0983 28.015 23.1643 28.2096 23.3027C28.333 23.3924 28.4273 23.5146 28.4813 23.6547L29.1053 26.7741H30.1117L30.6752 23.7036C30.6817 23.5794 30.7189 23.4585 30.7837 23.3513C30.8485 23.244 30.939 23.1535 31.0476 23.0876C31.1731 23.0351 31.3084 23.0081 31.4451 23.0081C31.5818 23.0081 31.717 23.0351 31.8426 23.0876C31.9826 23.1161 32.1137 23.1764 32.225 23.2636C32.3123 23.3352 32.3812 23.4256 32.4263 23.5276C32.4735 23.6255 32.4976 23.7324 32.4967 23.8405C32.5171 23.9439 32.5171 24.0501 32.4967 24.1534L31.9231 26.8132H32.0741C32.2044 26.7974 32.3367 26.8093 32.4618 26.8481C32.5869 26.887 32.7019 26.9518 32.7986 27.0381C32.9304 27.1762 33.0025 27.3582 32.9999 27.5465C33.0015 27.7223 32.9371 27.8927 32.8188 28.0257C32.7174 28.1107 32.5986 28.1739 32.4702 28.211C32.3418 28.248 32.2068 28.2582 32.0741 28.2408H31.6111L30.9771 31.1744C30.9406 31.286 30.8935 31.394 30.8362 31.497C30.7838 31.5974 30.7121 31.687 30.6249 31.761C30.5176 31.8371 30.3988 31.8966 30.2727 31.9371C30.1019 31.98 29.9257 31.9997 29.7493 31.9957C29.4349 32.018 29.1213 31.9426 28.8537 31.7806C28.6569 31.6335 28.5097 31.4326 28.431 31.2037L27.8674 28.2702H27.163L26.6095 31.2037C26.5382 31.4362 26.3896 31.6391 26.1868 31.7806C25.9161 31.944 25.5988 32.0194 25.2811 31.9957C25.098 32.0003 24.9152 31.9806 24.7376 31.9371C24.6146 31.8967 24.4991 31.8372 24.3955 31.761C24.3083 31.687 24.2366 31.5974 24.1841 31.497C24.1293 31.3929 24.0823 31.285 24.0433 31.1744L23.4193 28.2408L22.9463 28.2017ZM25.3012 29.4436L25.5528 28.2017H25.0697L25.3012 29.4436ZM27.314 26.7741H27.5655L27.4448 25.6984L27.314 26.7741ZM29.5883 29.4436L29.8097 28.2017H29.3367L29.5883 29.4436Z" fill="white"/>
</svg>
