<svg width="48" height="48" viewBox="0 0 48 48" fill="none" xmlns="http://www.w3.org/2000/svg">
<path d="M24.2867 23.6941C24.7724 23.2866 25.162 22.7825 25.429 22.2162C25.6961 21.6498 25.8343 21.0344 25.8343 20.4118C25.8343 19.2417 25.3547 18.1195 24.5011 17.2922C23.6475 16.4648 22.4898 16 21.2826 16C20.0754 16 18.9177 16.4648 18.0641 17.2922C17.2105 18.1195 16.731 19.2417 16.731 20.4118C16.731 21.0344 16.8692 21.6498 17.1362 22.2162C17.4032 22.7825 17.7928 23.2866 18.2785 23.6941C17.0042 24.2534 15.923 25.1566 15.1643 26.2958C14.4055 27.4349 14.0013 28.7617 14 30.1176C14 30.3517 14.0959 30.5761 14.2666 30.7416C14.4373 30.907 14.6689 31 14.9103 31C15.1518 31 15.3833 30.907 15.554 30.7416C15.7247 30.5761 15.8207 30.3517 15.8207 30.1176C15.8207 28.7136 16.3961 27.367 17.4204 26.3741C18.4447 25.3813 19.834 24.8235 21.2826 24.8235C22.7312 24.8235 24.1205 25.3813 25.1448 26.3741C26.1691 27.367 26.7446 28.7136 26.7446 30.1176C26.7446 30.3517 26.8405 30.5761 27.0112 30.7416C27.1819 30.907 27.4135 31 27.6549 31C27.8963 31 28.1279 30.907 28.2986 30.7416C28.4693 30.5761 28.5652 30.3517 28.5652 30.1176C28.5639 28.7617 28.1597 27.4349 27.4009 26.2958C26.6422 25.1566 25.561 24.2534 24.2867 23.6941ZM21.2826 23.0588C20.7425 23.0588 20.2145 22.9036 19.7654 22.6127C19.3163 22.3219 18.9662 21.9084 18.7595 21.4248C18.5528 20.9411 18.4987 20.4088 18.6041 19.8953C18.7095 19.3819 18.9696 18.9102 19.3515 18.54C19.7335 18.1698 20.2201 17.9177 20.7498 17.8156C21.2796 17.7134 21.8287 17.7659 22.3277 17.9662C22.8267 18.1666 23.2533 18.5058 23.5533 18.9411C23.8534 19.3764 24.0136 19.8882 24.0136 20.4118C24.0136 21.1138 23.7259 21.7871 23.2137 22.2835C22.7016 22.7799 22.0069 23.0588 21.2826 23.0588ZM30.1492 23.3412C30.7318 22.7053 31.1123 21.9198 31.2451 21.0791C31.3778 20.2385 31.257 19.3786 30.8973 18.6029C30.5375 17.8273 29.9542 17.1689 29.2175 16.7071C28.4807 16.2453 27.622 15.9998 26.7446 16C26.5031 16 26.2716 16.093 26.1009 16.2584C25.9302 16.4239 25.8343 16.6483 25.8343 16.8824C25.8343 17.1164 25.9302 17.3408 26.1009 17.5063C26.2716 17.6717 26.5031 17.7647 26.7446 17.7647C27.4689 17.7647 28.1635 18.0436 28.6757 18.54C29.1878 19.0364 29.4756 19.7097 29.4756 20.4118C29.4743 20.8752 29.3475 21.3302 29.1078 21.7313C28.8682 22.1323 28.5242 22.4653 28.1101 22.6971C27.9751 22.7725 27.8624 22.8803 27.7827 23.0101C27.703 23.1398 27.659 23.2873 27.6549 23.4382C27.6511 23.588 27.6867 23.7363 27.7584 23.8691C27.83 24.0018 27.9354 24.1147 28.0646 24.1971L28.4196 24.4265L28.5379 24.4882C29.6352 24.9927 30.561 25.7906 31.2061 26.7879C31.8512 27.7853 32.1888 28.9405 32.1792 30.1176C32.1792 30.3517 32.2751 30.5761 32.4459 30.7416C32.6166 30.907 32.8481 31 33.0896 31C33.331 31 33.5625 30.907 33.7333 30.7416C33.904 30.5761 33.9999 30.3517 33.9999 30.1176C34.0073 28.7636 33.6574 27.4302 32.9835 26.2442C32.3095 25.0581 31.3339 24.0588 30.1492 23.3412Z" fill="white"/>
</svg>
