<svg width="48" height="48" viewBox="0 0 48 48" fill="none" xmlns="http://www.w3.org/2000/svg">
<path d="M33.22 24C33.7178 23.4524 33.9956 22.7401 34 22C34 21.2044 33.6839 20.4413 33.1213 19.8787C32.5587 19.3161 31.7956 19 31 19H25.82C25.9797 18.5482 26.0289 18.0647 25.9634 17.5899C25.8979 17.1152 25.7196 16.6631 25.4435 16.2714C25.1674 15.8797 24.8014 15.5599 24.3763 15.3387C23.9512 15.1175 23.4792 15.0013 23 15H17C16.2044 15 15.4413 15.3161 14.8787 15.8787C14.3161 16.4413 14 17.2044 14 18C14.0044 18.7401 14.2822 19.4524 14.78 20C14.288 20.55 14.0161 21.2621 14.0161 22C14.0161 22.7379 14.288 23.45 14.78 24C14.288 24.55 14.0161 25.2621 14.0161 26C14.0161 26.7379 14.288 27.45 14.78 28C14.2822 28.5476 14.0044 29.2599 14 30C14 30.7956 14.3161 31.5587 14.8787 32.1213C15.4413 32.6839 16.2044 33 17 33H31C31.5778 32.9969 32.1423 32.8271 32.6259 32.5108C33.1094 32.1946 33.4914 31.7455 33.7259 31.2174C33.9603 30.6894 34.0373 30.1049 33.9476 29.5341C33.8578 28.9633 33.6052 28.4306 33.22 28C33.712 27.45 33.9839 26.7379 33.9839 26C33.9839 25.2621 33.712 24.55 33.22 24ZM23 31H17C16.7348 31 16.4804 30.8946 16.2929 30.7071C16.1054 30.5196 16 30.2652 16 30C16 29.7348 16.1054 29.4804 16.2929 29.2929C16.4804 29.1054 16.7348 29 17 29H23C23.2652 29 23.5196 29.1054 23.7071 29.2929C23.8946 29.4804 24 29.7348 24 30C24 30.2652 23.8946 30.5196 23.7071 30.7071C23.5196 30.8946 23.2652 31 23 31ZM23 27H17C16.7348 27 16.4804 26.8946 16.2929 26.7071C16.1054 26.5196 16 26.2652 16 26C16 25.7348 16.1054 25.4804 16.2929 25.2929C16.4804 25.1054 16.7348 25 17 25H23C23.2652 25 23.5196 25.1054 23.7071 25.2929C23.8946 25.4804 24 25.7348 24 26C24 26.2652 23.8946 26.5196 23.7071 26.7071C23.5196 26.8946 23.2652 27 23 27ZM23 23H17C16.7348 23 16.4804 22.8946 16.2929 22.7071C16.1054 22.5196 16 22.2652 16 22C16 21.7348 16.1054 21.4804 16.2929 21.2929C16.4804 21.1054 16.7348 21 17 21H23C23.2652 21 23.5196 21.1054 23.7071 21.2929C23.8946 21.4804 24 21.7348 24 22C24 22.2652 23.8946 22.5196 23.7071 22.7071C23.5196 22.8946 23.2652 23 23 23ZM23 19H17C16.7348 19 16.4804 18.8946 16.2929 18.7071C16.1054 18.5196 16 18.2652 16 18C16 17.7348 16.1054 17.4804 16.2929 17.2929C16.4804 17.1054 16.7348 17 17 17H23C23.2652 17 23.5196 17.1054 23.7071 17.2929C23.8946 17.4804 24 17.7348 24 18C24 18.2652 23.8946 18.5196 23.7071 18.7071C23.5196 18.8946 23.2652 19 23 19ZM31.69 30.71C31.6014 30.8035 31.4942 30.8776 31.3755 30.9275C31.2567 30.9774 31.1288 31.0021 31 31H25.82C26.0598 30.3549 26.0598 29.6451 25.82 29H31C31.2652 29 31.5196 29.1054 31.7071 29.2929C31.8946 29.4804 32 29.7348 32 30C31.9981 30.133 31.9698 30.2643 31.9165 30.3862C31.8633 30.5082 31.7863 30.6182 31.69 30.71ZM31.69 26.71C31.6014 26.8035 31.4942 26.8776 31.3755 26.9275C31.2567 26.9774 31.1288 27.0021 31 27H25.82C26.0598 26.3549 26.0598 25.6451 25.82 25H31C31.2652 25 31.5196 25.1054 31.7071 25.2929C31.8946 25.4804 32 25.7348 32 26C31.9981 26.133 31.9698 26.2643 31.9165 26.3862C31.8633 26.5082 31.7863 26.6182 31.69 26.71ZM31.69 22.71C31.6014 22.8035 31.4942 22.8776 31.3755 22.9275C31.2567 22.9774 31.1288 23.0021 31 23H25.82C26.0598 22.3549 26.0598 21.6451 25.82 21H31C31.2652 21 31.5196 21.1054 31.7071 21.2929C31.8946 21.4804 32 21.7348 32 22C31.9981 22.133 31.9698 22.2643 31.9165 22.3862C31.8633 22.5082 31.7863 22.6182 31.69 22.71Z" fill="white"/>
</svg>
