<svg width="48" height="48" viewBox="0 0 48 48" fill="none" xmlns="http://www.w3.org/2000/svg">
<path d="M32.7043 28.71L30.2851 26.29C30.1921 26.1963 30.0816 26.1219 29.9598 26.0711C29.8379 26.0203 29.7073 25.9942 29.5753 25.9942C29.4433 25.9942 29.3127 26.0203 29.1909 26.0711C29.069 26.1219 28.9585 26.1963 28.8655 26.29L25.2867 29.87C25.194 29.9634 25.1207 30.0743 25.071 30.1961C25.0212 30.3179 24.996 30.4484 24.9968 30.58V33C24.9968 33.2652 25.1021 33.5196 25.2896 33.7071C25.4771 33.8946 25.7313 34 25.9965 34H28.4157C28.5472 34.0008 28.6777 33.9755 28.7995 33.9258C28.9213 33.876 29.032 33.8027 29.1254 33.71L32.7043 30.13C32.798 30.037 32.8724 29.9264 32.9231 29.8046C32.9739 29.6827 33 29.552 33 29.42C33 29.288 32.9739 29.1573 32.9231 29.0354C32.8724 28.9136 32.798 28.803 32.7043 28.71ZM27.9958 32H26.9961V31L29.5753 28.42L30.575 29.42L27.9958 32ZM21.9977 32H17.999C17.7339 32 17.4796 31.8946 17.2922 31.7071C17.1047 31.5196 16.9994 31.2652 16.9994 31V17C16.9994 16.7348 17.1047 16.4804 17.2922 16.2929C17.4796 16.1054 17.7339 16 17.999 16H22.9974V19C22.9974 19.7956 23.3134 20.5587 23.8758 21.1213C24.4382 21.6839 25.2011 22 25.9965 22H28.9955V23C28.9955 23.2652 29.1008 23.5196 29.2883 23.7071C29.4758 23.8946 29.73 24 29.9952 24C30.2603 24 30.5146 23.8946 30.702 23.7071C30.8895 23.5196 30.9948 23.2652 30.9948 23V21C30.9948 21 30.9948 21 30.9948 20.94C30.9844 20.8481 30.9643 20.7576 30.9349 20.67V20.58C30.8868 20.4772 30.8227 20.3827 30.7449 20.3L24.7469 14.3C24.6642 14.2222 24.5697 14.1581 24.467 14.11C24.4371 14.1058 24.4068 14.1058 24.377 14.11L24.0571 14H17.999C17.2036 14 16.4408 14.3161 15.8784 14.8787C15.316 15.4413 15 16.2044 15 17V31C15 31.7956 15.316 32.5587 15.8784 33.1213C16.4408 33.6839 17.2036 34 17.999 34H21.9977C22.2629 34 22.5171 33.8946 22.7046 33.7071C22.8921 33.5196 22.9974 33.2652 22.9974 33C22.9974 32.7348 22.8921 32.4804 22.7046 32.2929C22.5171 32.1054 22.2629 32 21.9977 32ZM24.9968 17.41L27.5859 20H25.9965C25.7313 20 25.4771 19.8946 25.2896 19.7071C25.1021 19.5196 24.9968 19.2652 24.9968 19V17.41ZM19.9984 26H25.9965C26.2616 26 26.5159 25.8946 26.7033 25.7071C26.8908 25.5196 26.9961 25.2652 26.9961 25C26.9961 24.7348 26.8908 24.4804 26.7033 24.2929C26.5159 24.1054 26.2616 24 25.9965 24H19.9984C19.7333 24 19.479 24.1054 19.2915 24.2929C19.104 24.4804 18.9987 24.7348 18.9987 25C18.9987 25.2652 19.104 25.5196 19.2915 25.7071C19.479 25.8946 19.7333 26 19.9984 26ZM19.9984 22H20.9981C21.2632 22 21.5175 21.8946 21.7049 21.7071C21.8924 21.5196 21.9977 21.2652 21.9977 21C21.9977 20.7348 21.8924 20.4804 21.7049 20.2929C21.5175 20.1054 21.2632 20 20.9981 20H19.9984C19.7333 20 19.479 20.1054 19.2915 20.2929C19.104 20.4804 18.9987 20.7348 18.9987 21C18.9987 21.2652 19.104 21.5196 19.2915 21.7071C19.479 21.8946 19.7333 22 19.9984 22ZM21.9977 28H19.9984C19.7333 28 19.479 28.1054 19.2915 28.2929C19.104 28.4804 18.9987 28.7348 18.9987 29C18.9987 29.2652 19.104 29.5196 19.2915 29.7071C19.479 29.8946 19.7333 30 19.9984 30H21.9977C22.2629 30 22.5171 29.8946 22.7046 29.7071C22.8921 29.5196 22.9974 29.2652 22.9974 29C22.9974 28.7348 22.8921 28.4804 22.7046 28.2929C22.5171 28.1054 22.2629 28 21.9977 28Z" fill="white"/>
</svg>
