<svg width="48" height="48" viewBox="0 0 48 48" fill="none" xmlns="http://www.w3.org/2000/svg">
<path d="M25.9899 22.8626C26.3248 22.4043 26.5257 21.863 26.5704 21.2984C26.615 20.7337 26.5018 20.1678 26.243 19.6632C25.9843 19.1586 25.5903 18.7349 25.1044 18.439C24.6185 18.143 24.0598 17.9864 23.49 17.9864C22.9202 17.9864 22.3615 18.143 21.8756 18.439C21.3897 18.7349 20.9957 19.1586 20.737 19.6632C20.4783 20.1678 20.365 20.7337 20.4096 21.2984C20.4543 21.863 20.6552 22.4043 20.9901 22.8626C20.5653 23.1316 20.1871 23.4673 19.8702 23.8565C19.7874 23.9628 19.7266 24.0844 19.6911 24.2141C19.6556 24.3438 19.6462 24.4793 19.6634 24.6126C19.6806 24.746 19.724 24.8747 19.7912 24.9914C19.8584 25.108 19.9481 25.2104 20.0552 25.2926C20.1622 25.3749 20.2844 25.4353 20.415 25.4706C20.5455 25.5059 20.6818 25.5152 20.8159 25.4982C20.9501 25.4811 21.0796 25.4379 21.197 25.3711C21.3144 25.3043 21.4174 25.2151 21.5001 25.1088C21.7443 24.8002 22.0555 24.5506 22.4105 24.3785C22.7655 24.2064 23.155 24.1162 23.55 24.1149C23.945 24.1162 24.3345 24.2064 24.6895 24.3785C25.0445 24.5506 25.3557 24.8002 25.5999 25.1088C25.694 25.2241 25.8129 25.317 25.9479 25.3806C26.0829 25.4442 26.2305 25.477 26.3799 25.4765C26.5673 25.4757 26.7508 25.4224 26.9093 25.3229C27.0678 25.2234 27.1949 25.0817 27.2762 24.9138C27.3576 24.7459 27.3898 24.5587 27.3692 24.3735C27.3486 24.1883 27.2761 24.0126 27.1598 23.8664C26.8287 23.4695 26.4333 23.1303 25.9899 22.8626ZM23.5 22.137C23.2862 22.1369 23.0771 22.0742 22.8988 21.9568C22.7205 21.8395 22.5809 21.6726 22.4974 21.4769C22.4139 21.2813 22.3901 21.0655 22.429 20.8565C22.4679 20.6475 22.5678 20.4545 22.7163 20.3015C22.8647 20.1486 23.0552 20.0424 23.2639 19.9962C23.4726 19.95 23.6904 19.9659 23.8901 20.0418C24.0899 20.1177 24.2627 20.2504 24.3871 20.4232C24.5116 20.5961 24.5821 20.8015 24.59 21.0139C24.5953 21.1595 24.5711 21.3046 24.5188 21.4407C24.4664 21.5768 24.387 21.7009 24.2852 21.8058C24.1835 21.9106 24.0615 21.994 23.9266 22.0509C23.7916 22.1078 23.6466 22.1371 23.5 22.137ZM31.9596 21.6401C31.8192 20.1879 31.3029 18.7966 30.4609 17.6017C29.6189 16.4067 28.4799 15.4489 27.1548 14.8214C25.8298 14.1939 24.3638 13.9182 22.8997 14.021C21.4356 14.1239 20.0233 14.6018 18.8002 15.4083C17.7494 16.1067 16.8673 17.0277 16.2173 18.1051C15.5672 19.1826 15.1653 20.3898 15.0404 21.6401C14.9179 22.8821 15.075 24.1357 15.5005 25.3098C15.926 26.484 16.6091 27.5493 17.5003 28.4284L22.8 33.706C22.893 33.7992 23.0036 33.8731 23.1254 33.9236C23.2473 33.974 23.378 34 23.51 34C23.642 34 23.7727 33.974 23.8946 33.9236C24.0164 33.8731 24.127 33.7992 24.22 33.706L29.4997 28.4284C30.3909 27.5493 31.074 26.484 31.4995 25.3098C31.925 24.1357 32.0821 22.8821 31.9596 21.6401ZM28.0998 27.027L23.5 31.5989L18.9002 27.027C18.2223 26.3532 17.7031 25.5385 17.3797 24.6414C17.0564 23.7443 16.9371 22.7872 17.0303 21.8388C17.1241 20.8759 17.432 19.9456 17.9318 19.1154C18.4316 18.2852 19.1107 17.5757 19.9202 17.0383C20.9811 16.3378 22.2264 15.9642 23.5 15.9642C24.7736 15.9642 26.0189 16.3378 27.0798 17.0383C27.8868 17.5736 28.5645 18.28 29.0641 19.1065C29.5638 19.9331 29.8731 20.8595 29.9697 21.819C30.066 22.7705 29.9481 23.7315 29.6247 24.6322C29.3013 25.533 28.7804 26.351 28.0998 27.027Z" fill="white"/>
</svg>
