<svg width="48" height="48" viewBox="0 0 48 48" fill="none" xmlns="http://www.w3.org/2000/svg">
<path d="M31.91 27.51H27.38C27.1148 27.51 26.8604 27.6154 26.6729 27.8029C26.4854 27.9904 26.38 28.2448 26.38 28.51C26.38 28.7752 26.4854 29.0296 26.6729 29.2171C26.8604 29.4046 27.1148 29.51 27.38 29.51H29.78C28.6769 30.6627 27.2544 31.4593 25.6952 31.7974C24.1359 32.1355 22.5112 31.9996 21.0298 31.4072C19.5483 30.8149 18.2779 29.7931 17.3816 28.4732C16.4853 27.1532 16.0042 25.5955 16 24C16 23.7348 15.8946 23.4804 15.7071 23.2929C15.5196 23.1054 15.2652 23 15 23C14.7348 23 14.4804 23.1054 14.2929 23.2929C14.1054 23.4804 14 23.7348 14 24C14.0053 25.9528 14.5822 27.8613 15.6596 29.49C16.737 31.1187 18.2677 32.3964 20.0627 33.1652C21.8578 33.9341 23.8387 34.1605 25.761 33.8166C27.6833 33.4727 29.4628 32.5735 30.88 31.23V33C30.88 33.2652 30.9854 33.5196 31.1729 33.7071C31.3604 33.8946 31.6148 34 31.88 34C32.1452 34 32.3996 33.8946 32.5871 33.7071C32.7746 33.5196 32.88 33.2652 32.88 33V28.5C32.8775 28.2416 32.7752 27.9943 32.5943 27.8097C32.4135 27.6251 32.1683 27.5177 31.91 27.51ZM24 14C21.4364 14.0073 18.9735 14.9989 17.12 16.77V15C17.12 14.7348 17.0146 14.4804 16.8271 14.2929C16.6396 14.1054 16.3852 14 16.12 14C15.8548 14 15.6004 14.1054 15.4129 14.2929C15.2254 14.4804 15.12 14.7348 15.12 15V19.5C15.12 19.7652 15.2254 20.0196 15.4129 20.2071C15.6004 20.3946 15.8548 20.5 16.12 20.5H20.62C20.8852 20.5 21.1396 20.3946 21.3271 20.2071C21.5146 20.0196 21.62 19.7652 21.62 19.5C21.62 19.2348 21.5146 18.9804 21.3271 18.7929C21.1396 18.6054 20.8852 18.5 20.62 18.5H18.22C19.3225 17.3479 20.7441 16.5515 22.3024 16.2131C23.8607 15.8747 25.4846 16.0097 26.9656 16.6009C28.4466 17.192 29.7172 18.2122 30.6142 19.5306C31.5113 20.849 31.9938 22.4054 32 24C32 24.2652 32.1054 24.5196 32.2929 24.7071C32.4804 24.8946 32.7348 25 33 25C33.2652 25 33.5196 24.8946 33.7071 24.7071C33.8946 24.5196 34 24.2652 34 24C34 22.6868 33.7413 21.3864 33.2388 20.1732C32.7362 18.9599 31.9997 17.8575 31.0711 16.9289C30.1425 16.0003 29.0401 15.2638 27.8268 14.7612C26.6136 14.2587 25.3132 14 24 14Z" fill="#545656"/>
</svg>
