<svg width="48" height="48" viewBox="0 0 48 48" fill="none" xmlns="http://www.w3.org/2000/svg">
<path d="M33.9693 30.5843L33.017 26.8693L30.0174 15.7148C29.9525 15.4688 29.7939 15.2587 29.5761 15.1306C29.3584 15.0025 29.0993 14.9669 28.8556 15.0315L25.1702 15.9939C25.0823 15.8954 24.9751 15.8163 24.8555 15.7617C24.7359 15.707 24.6064 15.678 24.4751 15.6763H14.9523C14.6997 15.6763 14.4575 15.7777 14.2789 15.9582C14.1003 16.1387 14 16.3835 14 16.6387V32.0376C14 32.2928 14.1003 32.5376 14.2789 32.7181C14.4575 32.8986 14.6997 33 14.9523 33H24.4751C24.7276 33 24.9699 32.8986 25.1484 32.7181C25.327 32.5376 25.4274 32.2928 25.4274 32.0376V24.3382L27.5224 32.2493C27.5782 32.4593 27.7027 32.644 27.8756 32.7733C28.0485 32.9026 28.2597 32.9689 28.4747 32.9615C28.5569 32.971 28.64 32.971 28.7223 32.9615L33.3218 31.72C33.4434 31.6871 33.5573 31.6302 33.657 31.5526C33.7567 31.4749 33.8402 31.3781 33.9027 31.2676C34.0031 31.0547 34.0267 30.813 33.9693 30.5843ZM18.7328 31.1136H15.876V29.1888H18.7328V31.1136ZM18.7328 27.2639H15.876V21.4894H18.7328V27.2639ZM18.7328 19.5645H15.876V17.6397H18.7328V19.5645ZM23.4942 31.1136H20.6374V29.1888H23.4942V31.1136ZM23.4942 27.2639H20.6374V21.4894H23.4942V27.2639ZM23.4942 19.5645H20.6374V17.6397H23.4942V19.5645ZM25.6369 17.8899L28.3985 17.1392L28.8937 18.9967L26.1321 19.7474L25.6369 17.8899ZM28.1033 27.1869L26.6272 21.6049L29.3889 20.8542L30.8649 26.4362L28.1033 27.1869ZM29.0556 30.9019L28.5604 29.0444L31.322 28.2937L31.8172 30.1512L29.0556 30.9019Z" fill="white"/>
</svg>
