<svg width="115" height="106" viewBox="0 0 115 106" fill="none" xmlns="http://www.w3.org/2000/svg">
<path d="M57.5 31.25C53.2971 31.25 49.1887 32.4963 45.6941 34.8313C42.1996 37.1663 39.4759 40.485 37.8676 44.368C36.2592 48.2509 35.8384 52.5236 36.6583 56.6457C37.4782 60.7678 39.5021 64.5542 42.474 67.526C45.4458 70.4979 49.2322 72.5218 53.3543 73.3417C57.4764 74.1616 61.7491 73.7408 65.632 72.1324C69.5149 70.5241 72.8338 67.8004 75.1687 64.3059C77.5037 60.8113 78.75 56.7029 78.75 52.5C78.75 46.8642 76.5112 41.4591 72.526 37.474C68.5409 33.4888 63.1358 31.25 57.5 31.25ZM57.5 65.25C54.9783 65.25 52.5132 64.5022 50.4165 63.1012C48.3198 61.7002 46.6856 59.709 45.7205 57.3792C44.7555 55.0495 44.503 52.4859 44.995 50.0126C45.4869 47.5393 46.7013 45.2675 48.4844 43.4844C50.2675 41.7013 52.5393 40.4869 55.0126 39.995C57.4859 39.503 60.0495 39.7555 62.3792 40.7205C64.709 41.6856 66.7002 43.3198 68.1012 45.4165C69.5022 47.5132 70.25 49.9783 70.25 52.5C70.25 55.8815 68.9067 59.1245 66.5156 61.5156C64.1245 63.9067 60.8815 65.25 57.5 65.25ZM78.75 27C77.9094 27 77.0877 27.2493 76.3888 27.7163C75.6899 28.1833 75.1452 28.847 74.8235 29.6236C74.5018 30.4002 74.4177 31.2547 74.5817 32.0791C74.7457 32.9036 75.1504 33.6608 75.7448 34.2552C76.3392 34.8496 77.0964 35.2544 77.9209 35.4183C78.7453 35.5823 79.5998 35.4982 80.3764 35.1765C81.153 34.8548 81.8168 34.3101 82.2838 33.6112C82.7507 32.9123 83 32.0906 83 31.25C83 30.1228 82.5522 29.0418 81.7552 28.2448C80.9582 27.4478 79.8772 27 78.75 27ZM99.745 36.52C99.6746 32.888 98.9847 29.2948 97.705 25.895C96.5183 22.8013 94.6943 19.9917 92.3513 17.6487C90.0083 15.3057 87.1987 13.4817 84.105 12.295C80.7052 11.0153 77.1119 10.3254 73.48 10.255C69.3575 10 67.9975 10 57.5 10C47.0025 10 45.6425 10 41.52 10.255C37.888 10.3254 34.2948 11.0153 30.895 12.295C27.8013 13.4817 24.9917 15.3057 22.6487 17.6487C20.3057 19.9917 18.4817 22.8013 17.295 25.895C16.0153 29.2948 15.3254 32.888 15.255 36.52C15 40.685 15 42.045 15 52.5C15 62.955 15 64.315 15.255 68.48C15.3254 72.1119 16.0153 75.7052 17.295 79.105C18.4817 82.1987 20.3057 85.0083 22.6487 87.3513C24.9917 89.6943 27.8013 91.5183 30.895 92.705C34.2948 93.9847 37.888 94.6746 41.52 94.745C45.77 94.745 47.0025 95 57.5 95C67.9975 95 69.3575 95 73.48 94.745C77.1119 94.6746 80.7052 93.9847 84.105 92.705C87.1987 91.5183 90.0083 89.6943 92.3513 87.3513C94.6943 85.0083 96.5183 82.1987 97.705 79.105C98.9847 75.7052 99.6746 72.1119 99.745 68.48C99.745 64.23 100 62.955 100 52.5C100 42.045 100 40.685 99.745 36.52ZM91.245 68.0975C91.1705 70.7946 90.6684 73.4628 89.7575 76.0025C89.0044 78.01 87.8139 79.8247 86.2725 81.315C84.7911 82.8571 82.9728 84.0353 80.96 84.7575C78.4143 85.7057 75.7283 86.2228 73.0125 86.2875C69.0175 86.2875 67.785 86.5 57.4575 86.5C47.13 86.5 45.94 86.5 41.945 86.5C39.2336 86.43 36.5507 85.9278 33.9975 85.0125C31.99 84.2594 30.1754 83.0689 28.685 81.5275C27.1429 80.0461 25.9647 78.2278 25.2425 76.215C24.2982 73.6829 23.7811 71.0116 23.7125 68.31C23.7125 64.06 23.7125 62.9975 23.7125 52.7125C23.7125 42.4275 23.7125 41.195 23.7125 37.115C23.7858 34.4001 24.3026 31.7155 25.2425 29.1675C25.9759 27.1727 27.153 25.3706 28.685 23.8975C30.1664 22.3554 31.9847 21.1772 33.9975 20.455C36.5432 19.5068 39.2292 18.9897 41.945 18.925C45.94 18.5 47.1725 18.5 57.5 18.5C67.8275 18.5 69.06 18.5 73.055 18.5C75.7841 18.5694 78.4833 19.0863 81.045 20.03C83.0398 20.7634 84.8419 21.9405 86.315 23.4725C87.8571 24.9539 89.0353 26.7722 89.7575 28.785C90.7979 31.3714 91.3873 34.117 91.5 36.9025C91.5 41.1525 91.7125 42.215 91.7125 52.5C91.7125 62.785 91.5 64.0175 91.5 68.0975H91.245Z" fill="white"/>
</svg>
