<svg width="115" height="106" viewBox="0 0 115 106" fill="none" xmlns="http://www.w3.org/2000/svg">
<path d="M76.1016 31.8594C76.1016 22.4453 70.0664 17.3281 62.4297 17.3281C54.7148 17.3281 48.7383 22.4453 48.7188 31.8594C48.7383 41.2148 54.7148 46.3906 62.4297 46.3906C70.0664 46.3906 76.1016 41.2734 76.1016 31.8594ZM56.375 31.8594C56.375 26.6445 58.5234 23.8125 62.4297 23.8125C66.2969 23.8125 68.4648 26.6445 68.4453 31.8594C68.4648 37.0547 66.2969 39.8867 62.4297 39.9062C58.5234 39.8867 56.375 37.0547 56.375 31.8594ZM104.07 17.7188H96.6484V32.9141H96.4141L86.0625 17.7188H79.7344V46H87.1562V30.7266H87.3516L97.8594 46H104.07V17.7188Z" fill="white"/>
<path d="M50.9062 85L52.5859 79.4531H62.0586L63.7578 85H71.7656L62.3906 56.7188H52.2734L42.8594 85H50.9062ZM54.3047 73.8281L57.1953 64.3359H57.4297L60.3398 73.8281H54.3047ZM82 56.7188H74.5781V85H82V56.7188ZM85.8281 85H93.25V75.5859H96.1602L101.18 85H109.266L103.484 74.3945C106.531 72.9492 108.328 70.1953 108.328 66.2891C108.328 60.3125 104.188 56.7188 97.8594 56.7188H85.8281V85ZM93.25 69.7656V62.6562H96.1406C98.9336 62.6758 100.574 63.7891 100.555 66.2891C100.574 68.75 98.9336 69.7656 96.1406 69.7656H93.25Z" fill="white"/>
<path d="M28.5879 67.9118H11.5353C11.3642 67.9118 11.1983 67.8703 11.0479 67.79C10.7186 67.6137 3 63.3382 3 50.1593C3 45.2408 4.72418 40.9731 7.98586 37.8229C12.3339 33.6227 18.3439 32.29 22.1708 32.4196C29.4253 32.6685 39.7523 38.3311 39.996 50.1333C40.2371 61.8292 29.5239 67.554 29.0675 67.7926C28.9198 67.8703 28.7538 67.9092 28.5879 67.9092V67.9118ZM11.818 65.8376H28.3182C29.7572 65.0002 38.1188 59.7239 37.9244 50.1774C37.7092 39.7286 28.5412 34.7142 22.1008 34.4938C18.681 34.3746 13.3088 35.5672 9.42743 39.3164C6.53911 42.1062 5.0742 45.7568 5.0742 50.1618C5.0742 61.0021 10.6382 65.0935 11.818 65.8376Z" fill="white"/>
<path d="M12.6876 30.115C12.3557 30.115 12.029 29.9568 11.8294 29.6612L7.45023 23.2053C7.12873 22.7308 7.25318 22.0852 7.72507 21.7637C8.19954 21.4422 8.84514 21.5667 9.16664 22.0385L13.5458 28.4919C13.8673 28.9664 13.7428 29.612 13.271 29.9335C13.0921 30.0553 12.8898 30.1124 12.6902 30.1124L12.6876 30.115Z" fill="white"/>
<path d="M21.499 29.345C20.926 29.345 20.4619 28.8809 20.4619 28.3079V20.9341C20.4619 20.3611 20.926 19.897 21.499 19.897C22.072 19.897 22.5361 20.3611 22.5361 20.9341V28.3079C22.5361 28.8809 22.072 29.345 21.499 29.345Z" fill="white"/>
<path d="M30.5862 30.1149C30.3684 30.1149 30.148 30.0475 29.9613 29.9049C29.505 29.56 29.4143 28.9092 29.7591 28.4529L34.0605 22.767C34.4053 22.3107 35.0561 22.2199 35.5124 22.5648C35.9688 22.9096 36.0595 23.5604 35.7147 24.0167L31.4133 29.7026C31.2085 29.9723 30.8999 30.1149 30.5862 30.1149Z" fill="white"/>
<path d="M31.5072 49.7812C31.0457 49.7812 30.6257 49.4727 30.5038 49.006C30.4286 48.726 28.58 42.0652 21.4603 41.793C14.421 41.5233 12.759 47.663 12.6942 47.9248C12.5516 48.4797 11.989 48.8141 11.4341 48.6741C10.8793 48.5341 10.5448 47.9741 10.6822 47.4192C10.7029 47.3389 12.7875 39.3843 21.5407 39.7188C30.2212 40.0506 32.4898 48.3993 32.5132 48.4849C32.6584 49.0397 32.3239 49.6049 31.7717 49.7501C31.6835 49.7735 31.5953 49.7838 31.5098 49.7838L31.5072 49.7812Z" fill="white"/>
<path d="M17.5273 67.912C16.9543 67.912 16.4902 67.4479 16.4902 66.8749V58.2695C16.4902 57.6965 16.9543 57.2324 17.5273 57.2324C18.1003 57.2324 18.5644 57.6965 18.5644 58.2695V66.8749C18.5644 67.4479 18.1003 67.912 17.5273 67.912Z" fill="white"/>
<path d="M23.0576 67.912C22.4846 67.912 22.0205 67.4479 22.0205 66.8749V58.2695C22.0205 57.6965 22.4846 57.2324 23.0576 57.2324C23.6306 57.2324 24.0947 57.6965 24.0947 58.2695V66.8749C24.0947 67.4479 23.6306 67.912 23.0576 67.912Z" fill="white"/>
<path d="M14.1495 61.3028C14.1132 61.3028 14.0743 61.3028 14.038 61.2976C13.4676 61.2354 13.0553 60.7246 13.1175 60.1568C13.312 58.3393 15.0958 54.9428 20.4758 55.0828C25.8324 55.2228 27.497 58.4845 27.6292 60.1879C27.6733 60.7583 27.2455 61.2562 26.675 61.3002C26.1072 61.3417 25.6068 60.9165 25.5628 60.3461C25.5316 60.0427 25.1116 57.2789 20.4239 57.1544C15.5936 57.0222 15.1969 60.2398 15.184 60.3772C15.1269 60.9087 14.6784 61.3028 14.1546 61.3028H14.1495Z" fill="white"/>
<path d="M30.5857 73.5956H10.4971C9.92406 73.5956 9.45996 73.1315 9.45996 72.5585V66.8726C9.45996 66.2996 9.92406 65.8354 10.4971 65.8354H30.5857C31.1587 65.8354 31.6228 66.2996 31.6228 66.8726V72.5585C31.6228 73.1315 31.1587 73.5956 30.5857 73.5956ZM11.5342 71.5214H29.5486V67.9097H11.5342V71.5214Z" fill="white"/>
<path d="M30.4129 79.2816H10.3242C9.75121 79.2816 9.28711 78.8175 9.28711 78.2445V72.5586C9.28711 71.9856 9.75121 71.5215 10.3242 71.5215H30.4129C30.9859 71.5215 31.45 71.9856 31.45 72.5586V78.2445C31.45 78.8175 30.9859 79.2816 30.4129 79.2816ZM11.3613 77.2074H29.3758V73.5957H11.3613V77.2074Z" fill="white"/>
<path d="M27.2052 84.9647H14.1455C13.5725 84.9647 13.1084 84.5006 13.1084 83.9276V78.2417C13.1084 77.6687 13.5725 77.2046 14.1455 77.2046H27.2052C27.7782 77.2046 28.2423 77.6687 28.2423 78.2417V83.9276C28.2423 84.5006 27.7782 84.9647 27.2052 84.9647ZM15.1826 82.8905H26.1681V79.2788H15.1826V82.8905Z" fill="white"/>
</svg>
