<svg width="115" height="106" viewBox="0 0 115 106" fill="none" xmlns="http://www.w3.org/2000/svg">
<path d="M31.8647 42.3656C31.2407 42.3656 30.6307 42.5523 30.1122 42.9018C29.5938 43.2513 29.1901 43.748 28.9524 44.3288C28.7147 44.9096 28.6536 45.5484 28.777 46.1642C28.9004 46.78 29.2028 47.345 29.6457 47.7876C30.0885 48.2302 30.6518 48.5304 31.2643 48.6501C31.8769 48.7699 32.5108 48.7038 33.0859 48.4602C33.6611 48.2167 34.1515 47.8065 34.4948 47.2819C34.8382 46.7574 35.019 46.1421 35.0145 45.5139C35.0145 45.0985 34.9328 44.6872 34.7742 44.3038C34.6157 43.9203 34.3832 43.5722 34.0904 43.2796C33.7976 42.987 33.4503 42.7554 33.0683 42.5986C32.6862 42.4418 32.2772 42.3626 31.8647 42.3656Z" fill="white"/>
<path d="M62.834 42.0417C62.3683 42.0029 61.8996 42.0618 61.4577 42.2146C61.0157 42.3675 60.6101 42.6109 60.2663 42.9295C59.9225 43.2482 59.6481 43.6353 59.4604 44.0662C59.2727 44.4971 59.1758 44.9623 59.1758 45.4328C59.1758 45.9033 59.2727 46.3687 59.4604 46.7996C59.6481 47.2305 59.9225 47.6174 60.2663 47.9361C60.6101 48.2548 61.0157 48.4983 61.4577 48.6512C61.8996 48.804 62.3683 48.8629 62.834 48.8241C63.6793 48.7537 64.4673 48.366 65.0418 47.7378C65.6163 47.1095 65.9353 46.2868 65.9353 45.4328C65.9353 44.5789 65.6163 43.7563 65.0418 43.128C64.4673 42.4998 63.6793 42.1121 62.834 42.0417Z" fill="white"/>
<path d="M90.8376 11H24.1624C22.5633 11 20.9799 11.3175 19.5028 11.9343C18.0257 12.5512 16.6838 13.4553 15.5541 14.5949C14.4244 15.7344 13.529 17.0869 12.9192 18.5753C12.3093 20.0636 11.997 21.6585 12 23.2685V63.0833C11.997 64.6933 12.3093 66.2881 12.9192 67.7765C13.529 69.2648 14.4244 70.6175 15.5541 71.7571C16.6838 72.8966 18.0257 73.8006 19.5028 74.4175C20.9799 75.0343 22.5633 75.3518 24.1624 75.3518H47.7056L55.7068 94.3333C55.7068 94.3333 56.2584 96 57.5919 96C58.9254 96 59.4772 94.3333 59.4772 94.3333L67.5014 75.3518H90.8146C94.0464 75.3518 97.1458 74.0593 99.431 71.7585C101.716 69.4577 103 66.3371 103 63.0833V23.2685C103 20.0187 101.719 16.9018 99.4392 14.6016C97.1589 12.3015 94.0654 11.0061 90.8376 11ZM40.6014 46.2084C40.6014 53.5 33.0831 53.7083 33.0831 53.7083C32.2268 53.7221 31.3768 53.5587 30.5858 53.2282C29.7949 52.8977 29.0798 52.4072 28.4848 51.787V53.0833H23.0589V30.4908H28.4848V39.1482C29.7724 36.8334 33.4739 36.9723 33.4739 36.9723C41.6129 37.713 40.6014 46.2084 40.6014 46.2084ZM50.1888 37.6435V53.1296H44.8547V37.8056C44.8547 35.7222 42.2797 35.1435 42.2797 35.1435V29.7269C43.3344 29.6481 44.3936 29.7985 45.3856 30.1678C46.3775 30.5372 47.2791 31.1168 48.0291 31.8675C48.7791 32.6182 49.3601 33.5226 49.7327 34.5191C50.1053 35.5157 50.2608 36.5812 50.1888 37.6435ZM62.834 53.7083C61.2344 53.5778 59.7072 52.9805 58.4395 51.9897C57.1718 50.9989 56.2185 49.6575 55.6962 48.1297C55.174 46.6018 55.1054 44.9539 55.4989 43.3875C55.8925 41.821 56.7311 40.404 57.9122 39.31C59.0932 38.2159 60.5654 37.4922 62.1485 37.2274C63.7317 36.9627 65.3571 37.1683 66.826 37.8193C68.2948 38.4702 69.5434 39.5382 70.4188 40.8925C71.2942 42.2468 71.7584 43.8286 71.7547 45.4444C71.6532 47.7288 70.6581 49.88 68.9867 51.4283C67.3154 52.9766 65.1035 53.7962 62.834 53.7083ZM92.0102 53.7083C92.0363 54.7548 91.8486 55.7956 91.4585 56.766C91.0685 57.7364 90.4845 58.6156 89.7429 59.3493C89.0012 60.0829 88.1178 60.6553 87.1472 61.0308C86.1767 61.4064 85.1399 61.5771 84.1011 61.5324H81.802V56.4398H83.2504C83.2504 56.4398 86.5842 56.7408 86.5382 51.5787C86.5382 51.5787 85.8944 53.662 81.2272 53.662C79.4516 53.5683 77.7776 52.799 76.544 51.5098C75.3104 50.2205 74.6093 48.5075 74.5826 46.7175V44.2408C74.6701 42.2994 75.4892 40.4645 76.8732 39.1098C78.2572 37.7551 80.1019 36.9824 82.0318 36.9491C82.9088 36.8937 83.7859 37.0546 84.5872 37.4176C85.3885 37.7806 86.0897 38.335 86.6301 39.0325V37.3658H92.0332L92.0102 53.7083Z" fill="white"/>
<path d="M83.5493 42.111C82.8935 42.1064 82.2512 42.298 81.7037 42.6615C81.1562 43.0249 80.7282 43.5439 80.4741 44.1526C80.22 44.7613 80.1513 45.4323 80.2764 46.0804C80.4015 46.7285 80.7149 47.3246 81.177 47.7931C81.6391 48.2616 82.2291 48.5814 82.8719 48.7119C83.5148 48.8424 84.1815 48.7777 84.7878 48.5261C85.3941 48.2745 85.9126 47.8474 86.2774 47.2987C86.6422 46.7501 86.837 46.1046 86.837 45.4444C86.8401 45.0077 86.7573 44.5748 86.5934 44.1705C86.4296 43.7663 86.1879 43.3986 85.8822 43.0887C85.5766 42.7789 85.2132 42.533 84.8128 42.3652C84.4124 42.1974 83.983 42.111 83.5493 42.111Z" fill="white"/>
</svg>
