<svg width="115" height="106" viewBox="0 0 115 106" fill="none" xmlns="http://www.w3.org/2000/svg">
<path d="M96.9816 43.1459C97.1613 37.594 96.0237 32.0837 93.6746 27.1265C92.0807 25.0925 89.8687 23.7198 87.424 23.2477C77.3123 22.2684 67.1587 21.8671 57.0068 22.0453C46.8919 21.859 36.7749 22.2474 26.6987 23.209C24.7065 23.5957 22.863 24.5931 21.3929 26.0792C18.1223 29.2986 17.7589 34.8065 17.3954 39.461C16.8682 47.8298 16.8682 56.2268 17.3954 64.5955C17.5006 67.2153 17.866 69.8157 18.4857 72.3531C18.9238 74.3121 19.8104 76.1246 21.0659 77.6282C22.5459 79.1932 24.4324 80.2472 26.4806 80.6537C34.3154 81.6859 42.2097 82.1137 50.1021 81.9337C62.8213 82.1276 73.9779 81.9337 87.1696 80.8476C89.2681 80.4661 91.2077 79.4107 92.7297 77.8222C93.7471 76.7358 94.5071 75.4061 94.9465 73.9434C96.2461 69.6869 96.8845 65.2321 96.8362 60.7555C96.9816 58.5834 96.9816 45.4732 96.9816 43.1459ZM48.7938 63.0828V39.0732L70.3075 51.1362C64.2749 54.7047 56.3163 58.7386 48.7938 63.0828Z" fill="white"/>
</svg>
