<svg width="19" height="13" viewBox="0 0 19 13" fill="none" xmlns="http://www.w3.org/2000/svg">
<path d="M0.451459 5.34906C0.307251 5.50341 0.19421 5.68542 0.118821 5.88465C-0.0396069 6.27978 -0.0396069 6.72299 0.118821 7.11812C0.19421 7.31735 0.307251 7.49936 0.451459 7.65371L5.20343 12.5227C5.5017 12.8283 5.90625 13 6.32807 13C6.74989 13 7.15443 12.8283 7.4527 12.5227C7.75097 12.2171 7.91854 11.8026 7.91854 11.3704C7.91854 10.9382 7.75097 10.5237 7.4527 10.218L5.39351 8.12438H17.416C17.8361 8.12438 18.239 7.95339 18.5361 7.64901C18.8331 7.34464 19 6.93183 19 6.50139C19 6.07094 18.8331 5.65813 18.5361 5.35376C18.239 5.04939 17.8361 4.87839 17.416 4.87839H5.39351L7.4527 2.78473C7.60117 2.63385 7.71901 2.45435 7.79942 2.25657C7.87984 2.05879 7.92124 1.84666 7.92124 1.6324C7.92124 1.41815 7.87984 1.20602 7.79942 1.00824C7.71901 0.810462 7.60117 0.630957 7.4527 0.480079C7.30545 0.327958 7.13026 0.207217 6.93723 0.12482C6.74421 0.0424226 6.53717 0 6.32807 0C6.11896 0 5.91192 0.0424226 5.7189 0.12482C5.52588 0.207217 5.35069 0.327958 5.20343 0.480079L0.451459 5.34906Z" fill="#EC5E0F"/>
</svg>
