<svg width="7" height="4" viewBox="0 0 7 4" fill="none" xmlns="http://www.w3.org/2000/svg">
<path d="M6.80358 0.186209C6.67916 0.0669431 6.51086 0 6.33543 0C6.16 0 5.9917 0.0669431 5.86729 0.186209L3.4834 2.45305L1.13271 0.186209C1.0083 0.0669431 0.839995 0 0.664566 0C0.489137 0 0.320836 0.0669431 0.196421 0.186209C0.134182 0.245738 0.084781 0.316561 0.0510688 0.394593C0.0173566 0.472626 0 0.556323 0 0.640857C0 0.72539 0.0173566 0.809088 0.0510688 0.88712C0.084781 0.965153 0.134182 1.03598 0.196421 1.0955L3.01193 3.81059C3.07366 3.8706 3.14711 3.91824 3.22803 3.95075C3.30894 3.98326 3.39574 4 3.4834 4C3.57106 4 3.65785 3.98326 3.73877 3.95075C3.81969 3.91824 3.89313 3.8706 3.95486 3.81059L6.80358 1.0955C6.86582 1.03598 6.91522 0.965153 6.94893 0.88712C6.98264 0.809088 7 0.72539 7 0.640857C7 0.556323 6.98264 0.472626 6.94893 0.394593C6.91522 0.316561 6.86582 0.245738 6.80358 0.186209Z" fill="#6A6A6A"/>
</svg>
