<svg width="13" height="13" viewBox="0 0 13 13" fill="none" xmlns="http://www.w3.org/2000/svg">
<g clip-path="url(#clip0_3240_25661)">
<path d="M7.6448 6.49925L12.7598 1.6046C12.9127 1.45807 12.9986 1.25933 12.9986 1.0521C12.9986 0.844874 12.9127 0.646135 12.7598 0.499604C12.607 0.353072 12.3996 0.270752 12.1834 0.270752C11.9672 0.270752 11.7598 0.353072 11.6069 0.499604L6.5 5.40204L1.39308 0.499604C1.24019 0.353072 1.03283 0.270752 0.816619 0.270752C0.600406 0.270752 0.393048 0.353072 0.240162 0.499604C0.0872761 0.646135 0.0013858 0.844874 0.0013858 1.0521C0.0013858 1.25933 0.0872761 1.45807 0.240162 1.6046L5.3552 6.49925L0.240162 11.3939C0.164063 11.4663 0.103661 11.5523 0.0624418 11.6471C0.0212221 11.742 0 11.8437 0 11.9464C0 12.0491 0.0212221 12.1508 0.0624418 12.2457C0.103661 12.3405 0.164063 12.4266 0.240162 12.4989C0.31564 12.5718 0.405438 12.6297 0.504377 12.6692C0.603316 12.7087 0.709437 12.7291 0.816619 12.7291C0.923801 12.7291 1.02992 12.7087 1.12886 12.6692C1.2278 12.6297 1.3176 12.5718 1.39308 12.4989L6.5 7.59647L11.6069 12.4989C11.6824 12.5718 11.7722 12.6297 11.8711 12.6692C11.9701 12.7087 12.0762 12.7291 12.1834 12.7291C12.2906 12.7291 12.3967 12.7087 12.4956 12.6692C12.5946 12.6297 12.6844 12.5718 12.7598 12.4989C12.8359 12.4266 12.8963 12.3405 12.9376 12.2457C12.9788 12.1508 13 12.0491 13 11.9464C13 11.8437 12.9788 11.742 12.9376 11.6471C12.8963 11.5523 12.8359 11.4663 12.7598 11.3939L7.6448 6.49925Z" fill="#545656"/>
</g>
<defs>
<clipPath id="clip0_3240_25661">
<rect width="13" height="13" fill="white"/>
</clipPath>
</defs>
</svg>
