<svg width="16" height="12" viewBox="0 0 16 12" fill="none" xmlns="http://www.w3.org/2000/svg">
<path d="M15.92 5.61946C15.8724 5.49681 15.801 5.38476 15.71 5.28973L10.71 0.29385C10.6168 0.200688 10.5061 0.126788 10.3842 0.0763693C10.2624 0.0259505 10.1319 0 10 0C9.7337 0 9.4783 0.105701 9.29 0.29385C9.19676 0.387011 9.1228 0.49761 9.07234 0.619332C9.02188 0.741054 8.99591 0.871514 8.99591 1.00326C8.99591 1.26935 9.1017 1.52453 9.29 1.71268L12.59 4.99997H1C0.734784 4.99997 0.48043 5.10524 0.292893 5.29262C0.105357 5.48001 0 5.73415 0 5.99915C0 6.26415 0.105357 6.51829 0.292893 6.70567C0.48043 6.89305 0.734784 6.99832 1 6.99832H12.59L9.29 10.2856C9.19627 10.3785 9.12188 10.489 9.07111 10.6108C9.02034 10.7325 8.9942 10.8631 8.9942 10.995C8.9942 11.1269 9.02034 11.2575 9.07111 11.3793C9.12188 11.501 9.19627 11.6116 9.29 11.7044C9.38296 11.7981 9.49356 11.8724 9.61542 11.9232C9.73728 11.9739 9.86799 12 10 12C10.132 12 10.2627 11.9739 10.3846 11.9232C10.5064 11.8724 10.617 11.7981 10.71 11.7044L15.71 6.70856C15.801 6.61354 15.8724 6.50148 15.92 6.37883C16.02 6.13557 16.02 5.86272 15.92 5.61946Z" fill="#13A538"/>
</svg>
