<svg width="28" height="28" viewBox="0 0 28 28" fill="none" xmlns="http://www.w3.org/2000/svg">
<path d="M14.5522 17.8473C14.514 17.8144 14.4723 17.7851 14.4278 17.76C14.3881 17.7312 14.3433 17.7091 14.2956 17.6945C14.2492 17.6724 14.1993 17.6577 14.1478 17.6509C13.9988 17.6215 13.8436 17.6367 13.7044 17.6945C13.6079 17.7272 13.5203 17.7793 13.4477 17.8472C13.3751 17.9151 13.3194 17.997 13.2844 18.0873C13.2409 18.1736 13.2196 18.2682 13.2222 18.3636C13.221 18.4582 13.2395 18.5521 13.2767 18.64C13.3218 18.7269 13.3793 18.8076 13.4478 18.88C13.5205 18.9474 13.6066 19.0007 13.7014 19.0369C13.7962 19.0731 13.8976 19.0915 14 19.0909C14.102 19.0934 14.2032 19.0734 14.2956 19.0327C14.3898 18.9959 14.4766 18.9442 14.5522 18.88C14.6243 18.812 14.6813 18.7315 14.72 18.6428C14.7587 18.5542 14.7784 18.4594 14.7778 18.3636C14.7765 18.2686 14.7554 18.1747 14.7156 18.0873C14.6785 17.998 14.623 17.9164 14.5522 17.8473ZM11.3167 14.8509C11.277 14.8221 11.2322 14.8 11.1844 14.7855C11.1391 14.7582 11.0891 14.7385 11.0367 14.7273C10.9369 14.7056 10.8331 14.7056 10.7333 14.7273L10.5933 14.7709L10.4533 14.8364L10.3367 14.9236C10.1909 15.0667 10.11 15.257 10.1111 15.4545C10.1105 15.5503 10.1301 15.6451 10.1688 15.7338C10.2076 15.8224 10.2646 15.903 10.3367 15.9709C10.4123 16.0352 10.4991 16.0868 10.5933 16.1236C10.7112 16.1689 10.8391 16.1864 10.9658 16.1746C11.0926 16.1628 11.2143 16.1221 11.3203 16.0561C11.4263 15.99 11.5133 15.9006 11.5737 15.7957C11.6341 15.6908 11.666 15.5737 11.6667 15.4545C11.6638 15.262 11.5832 15.0776 11.4411 14.9382L11.3167 14.8509ZM11.4411 17.8473C11.3671 17.7811 11.2799 17.7292 11.1844 17.6945C11.0436 17.6335 10.8865 17.6132 10.7333 17.6364L10.5933 17.68C10.5438 17.6959 10.4967 17.7179 10.4533 17.7455C10.4126 17.7723 10.3736 17.8015 10.3367 17.8327C10.2659 17.9019 10.2104 17.9835 10.1733 18.0727C10.1322 18.1598 10.1109 18.2539 10.1109 18.3491C10.1109 18.4443 10.1322 18.5384 10.1733 18.6255C10.2127 18.7136 10.268 18.7948 10.3367 18.8655C10.408 18.9355 10.4937 18.9915 10.5885 19.0302C10.6833 19.0689 10.7854 19.0896 10.8889 19.0909C10.9909 19.0934 11.0921 19.0734 11.1844 19.0327C11.2787 18.9959 11.3655 18.9442 11.4411 18.88C11.5098 18.8093 11.5651 18.7281 11.6044 18.64C11.6456 18.5529 11.6668 18.4588 11.6668 18.3636C11.6668 18.2685 11.6456 18.1743 11.6044 18.0873C11.5674 17.998 11.5119 17.9164 11.4411 17.8473ZM13.7044 14.7855C13.609 14.8201 13.5217 14.872 13.4478 14.9382C13.3057 15.0776 13.2251 15.262 13.2222 15.4545C13.2229 15.5737 13.2548 15.6908 13.3152 15.7957C13.3755 15.9006 13.4626 15.99 13.5686 16.0561C13.6746 16.1221 13.7963 16.1628 13.923 16.1746C14.0498 16.1864 14.1777 16.1689 14.2956 16.1236C14.3898 16.0868 14.4766 16.0352 14.5522 15.9709C14.6243 15.903 14.6813 15.8224 14.72 15.7338C14.7587 15.6451 14.7784 15.5503 14.7778 15.4545C14.7749 15.262 14.6943 15.0776 14.5522 14.9382C14.4428 14.8373 14.304 14.7689 14.1531 14.7417C14.0022 14.7145 13.8461 14.7298 13.7044 14.7855ZM17.6633 17.8473C17.5877 17.783 17.5009 17.7314 17.4067 17.6945C17.265 17.6389 17.1089 17.6236 16.958 17.6508C16.8072 17.678 16.6683 17.7464 16.5589 17.8473C16.4881 17.9164 16.4326 17.998 16.3956 18.0873C16.3544 18.1743 16.3332 18.2685 16.3332 18.3636C16.3332 18.4588 16.3544 18.5529 16.3956 18.64C16.4349 18.7281 16.4902 18.8093 16.5589 18.88C16.6316 18.9474 16.7178 19.0007 16.8125 19.0369C16.9073 19.0731 17.0088 19.0915 17.1111 19.0909C17.2131 19.0934 17.3144 19.0734 17.4067 19.0327C17.5009 18.9959 17.5877 18.9442 17.6633 18.88C17.7713 18.7777 17.8444 18.6479 17.8734 18.5068C17.9025 18.3657 17.8862 18.2197 17.8267 18.0873C17.7896 17.998 17.7341 17.9164 17.6633 17.8473ZM17.1111 8.90909H10.8889C10.6826 8.90909 10.4848 8.98571 10.3389 9.1221C10.1931 9.25849 10.1111 9.44348 10.1111 9.63636V12.5455C10.1111 12.7383 10.1931 12.9233 10.3389 13.0597C10.4848 13.1961 10.6826 13.2727 10.8889 13.2727H17.1111C17.3174 13.2727 17.5152 13.1961 17.6611 13.0597C17.8069 12.9233 17.8889 12.7383 17.8889 12.5455V9.63636C17.8889 9.44348 17.8069 9.25849 17.6611 9.1221C17.5152 8.98571 17.3174 8.90909 17.1111 8.90909ZM16.3333 11.8182H11.6667V10.3636H16.3333V11.8182ZM18.6667 6H9.33333C8.71449 6 8.121 6.22987 7.68342 6.63904C7.24583 7.04821 7 7.60316 7 8.18182V19.8182C7 20.3968 7.24583 20.9518 7.68342 21.361C8.121 21.7701 8.71449 22 9.33333 22H18.6667C19.2855 22 19.879 21.7701 20.3166 21.361C20.7542 20.9518 21 20.3968 21 19.8182V8.18182C21 7.60316 20.7542 7.04821 20.3166 6.63904C19.879 6.22987 19.2855 6 18.6667 6ZM19.4444 19.8182C19.4444 20.0111 19.3625 20.1961 19.2166 20.3324C19.0708 20.4688 18.8729 20.5455 18.6667 20.5455H9.33333C9.12705 20.5455 8.92922 20.4688 8.78336 20.3324C8.6375 20.1961 8.55556 20.0111 8.55556 19.8182V8.18182C8.55556 7.98893 8.6375 7.80395 8.78336 7.66756C8.92922 7.53117 9.12705 7.45455 9.33333 7.45455H18.6667C18.8729 7.45455 19.0708 7.53117 19.2166 7.66756C19.3625 7.80395 19.4444 7.98893 19.4444 8.18182V19.8182ZM17.5389 14.8509C17.4992 14.8221 17.4544 14.8 17.4067 14.7855C17.3604 14.7633 17.3104 14.7486 17.2589 14.7418C17.1591 14.7201 17.0553 14.7201 16.9556 14.7418L16.8156 14.7855L16.6756 14.8509L16.5589 14.9382C16.4168 15.0776 16.3362 15.262 16.3333 15.4545C16.334 15.5737 16.3659 15.6908 16.4263 15.7957C16.4867 15.9006 16.5737 15.99 16.6797 16.0561C16.7857 16.1221 16.9074 16.1628 17.0342 16.1746C17.1609 16.1864 17.2888 16.1689 17.4067 16.1236C17.5009 16.0868 17.5877 16.0352 17.6633 15.9709C17.7354 15.903 17.7924 15.8224 17.8312 15.7338C17.8699 15.6451 17.8895 15.5503 17.8889 15.4545C17.886 15.262 17.8055 15.0776 17.6633 14.9382L17.5389 14.8509Z" fill="#545656"/>
</svg>
