<svg width="28" height="28" viewBox="0 0 28 28" fill="none" xmlns="http://www.w3.org/2000/svg">
<path d="M13.2157 20.4H9.33087C9.12481 20.4 8.92719 20.3157 8.78148 20.1657C8.63577 20.0157 8.55392 19.8122 8.55392 19.6V8.4C8.55392 8.18783 8.63577 7.98434 8.78148 7.83431C8.92719 7.68429 9.12481 7.6 9.33087 7.6H13.9926V10.8C13.9926 11.0122 14.0745 11.2157 14.2202 11.3657C14.3659 11.5157 14.5635 11.6 14.7696 11.6H18.6544C18.8078 11.5992 18.9575 11.5517 19.0847 11.4634C19.2119 11.3752 19.3109 11.2501 19.3692 11.104C19.4287 10.9583 19.4449 10.7977 19.4159 10.6425C19.3868 10.4874 19.3138 10.3445 19.206 10.232L15.3212 6.232C15.257 6.16977 15.1836 6.11846 15.1037 6.08H15.0337C14.9644 6.04492 14.8914 6.01808 14.8162 6H9.33087C8.71269 6 8.11982 6.25286 7.6827 6.70294C7.24557 7.15303 7 7.76348 7 8.4V19.6C7 20.2365 7.24557 20.847 7.6827 21.2971C8.11982 21.7471 8.71269 22 9.33087 22H13.2157C13.4217 22 13.6193 21.9157 13.7651 21.7657C13.9108 21.6157 13.9926 21.4122 13.9926 21.2C13.9926 20.9878 13.9108 20.7843 13.7651 20.6343C13.6193 20.4843 13.4217 20.4 13.2157 20.4ZM15.5465 8.728L16.7819 10H15.5465V8.728Z" fill="#545656"/>
<path d="M13.1805 17.3614C12.9758 17.3839 12.7705 17.3248 12.6091 17.1971C12.5549 17.1428 12.5123 17.078 12.4841 17.0067C12.4558 16.9354 12.4424 16.8591 12.4447 16.7825C12.449 16.6415 12.5015 16.5062 12.5934 16.3992C12.6725 16.3287 12.7659 16.2761 12.8673 16.2451C12.9686 16.214 13.0754 16.2052 13.1805 16.2193H13.2744L12.8361 14.0915C12.82 14.0062 12.82 13.9186 12.8361 13.8333C12.8336 13.7441 12.8524 13.6557 12.8908 13.5752C12.9256 13.4911 12.9791 13.4162 13.0474 13.3561C13.1335 13.2885 13.2362 13.2453 13.3448 13.231C13.5431 13.1755 13.7549 13.195 13.9397 13.2857C14.0247 13.3328 14.0965 13.4004 14.1484 13.4824C14.2004 13.5644 14.2309 13.6582 14.2371 13.7551L14.6598 16.2193H15.4425L15.9357 13.716C15.9841 13.6029 16.0661 13.5073 16.1705 13.4422C16.3415 13.3292 16.5454 13.2769 16.7497 13.2935C16.9367 13.2787 17.1228 13.3314 17.2741 13.4422C17.3701 13.5139 17.4435 13.6116 17.4855 13.7238L17.9708 16.2193H18.7535L19.1918 13.7629C19.1968 13.6635 19.2258 13.5668 19.2762 13.481C19.3266 13.3952 19.397 13.3228 19.4814 13.2701C19.5791 13.2281 19.6843 13.2065 19.7906 13.2065C19.8969 13.2065 20.0021 13.2281 20.0998 13.2701C20.2087 13.2929 20.3106 13.3411 20.3973 13.4109C20.4652 13.4682 20.5187 13.5405 20.5538 13.6221C20.5905 13.7004 20.6093 13.7859 20.6086 13.8724C20.6244 13.9551 20.6244 14.04 20.6086 14.1227L20.1624 16.2505H20.2798C20.3812 16.2379 20.4841 16.2474 20.5814 16.2785C20.6787 16.3096 20.7681 16.3614 20.8434 16.4305C20.9459 16.5409 21.002 16.6866 20.9999 16.8372C21.0011 16.9779 20.9511 17.1141 20.8591 17.2206C20.7802 17.2886 20.6878 17.3391 20.5879 17.3688C20.4881 17.3984 20.3831 17.4066 20.2798 17.3927H19.9198L19.4266 19.7395C19.3983 19.8288 19.3616 19.9152 19.3171 19.9976C19.2763 20.0779 19.2205 20.1496 19.1527 20.2088C19.0692 20.2697 18.9768 20.3172 18.8788 20.3497C18.7459 20.384 18.6089 20.3998 18.4717 20.3966C18.2271 20.4144 17.9832 20.3541 17.7751 20.2245C17.622 20.1068 17.5075 19.9461 17.4463 19.763L17.008 17.4161H16.4601L16.0296 19.763C15.9742 19.9489 15.8586 20.1113 15.7009 20.2245C15.4903 20.3552 15.2435 20.4155 14.9964 20.3966C14.854 20.4002 14.7118 20.3845 14.5737 20.3497C14.478 20.3173 14.3882 20.2698 14.3076 20.2088C14.2398 20.1496 14.184 20.0779 14.1432 19.9976C14.1006 19.9143 14.064 19.828 14.0336 19.7395L13.5483 17.3927L13.1805 17.3614ZM15.0121 18.3548L15.2077 17.3614H14.832L15.0121 18.3548ZM16.5775 16.2193H16.7732L16.6793 15.3587L16.5775 16.2193ZM18.3465 18.3548L18.5187 17.3614H18.1508L18.3465 18.3548Z" fill="#545656"/>
</svg>
