<svg width="28" height="28" viewBox="0 0 28 28" fill="none" xmlns="http://www.w3.org/2000/svg">
<path d="M20 11.552C19.9922 11.4785 19.9771 11.4061 19.955 11.336V11.264C19.9189 11.1817 19.8708 11.1061 19.8125 11.04L15.3125 6.24C15.2505 6.17777 15.1796 6.12646 15.1025 6.088C15.0801 6.08461 15.0574 6.08461 15.035 6.088C14.9588 6.04139 14.8747 6.01148 14.7875 6H10.25C9.65326 6 9.08097 6.25286 8.65901 6.70294C8.23705 7.15303 8 7.76348 8 8.4V19.6C8 20.2365 8.23705 20.847 8.65901 21.2971C9.08097 21.7471 9.65326 22 10.25 22H17.75C18.3467 22 18.919 21.7471 19.341 21.2971C19.7629 20.847 20 20.2365 20 19.6V11.6C20 11.6 20 11.6 20 11.552ZM15.5 8.728L17.4425 10.8H16.25C16.0511 10.8 15.8603 10.7157 15.7197 10.5657C15.579 10.4157 15.5 10.2122 15.5 10V8.728ZM18.5 19.6C18.5 19.8122 18.421 20.0157 18.2803 20.1657C18.1397 20.3157 17.9489 20.4 17.75 20.4H10.25C10.0511 20.4 9.86032 20.3157 9.71967 20.1657C9.57902 20.0157 9.5 19.8122 9.5 19.6V8.4C9.5 8.18783 9.57902 7.98434 9.71967 7.83431C9.86032 7.68429 10.0511 7.6 10.25 7.6H14V10C14 10.6365 14.2371 11.247 14.659 11.6971C15.081 12.1471 15.6533 12.4 16.25 12.4H18.5V19.6ZM15.7175 14.232L13.25 16.872L12.2825 15.832C12.1413 15.6814 11.9497 15.5967 11.75 15.5967C11.5503 15.5967 11.3587 15.6814 11.2175 15.832C11.0763 15.9826 10.9969 16.187 10.9969 16.4C10.9969 16.613 11.0763 16.8174 11.2175 16.968L12.7175 18.568C12.7872 18.643 12.8702 18.7025 12.9616 18.7431C13.053 18.7837 13.151 18.8046 13.25 18.8046C13.349 18.8046 13.447 18.7837 13.5384 18.7431C13.6298 18.7025 13.7128 18.643 13.7825 18.568L16.7825 15.368C16.9237 15.2174 17.0031 15.013 17.0031 14.8C17.0031 14.587 16.9237 14.3826 16.7825 14.232C16.6413 14.0814 16.4497 13.9967 16.25 13.9967C16.0503 13.9967 15.8587 14.0814 15.7175 14.232Z" fill="white"/>
</svg>
