<svg width="28" height="28" viewBox="0 0 28 28" fill="none" xmlns="http://www.w3.org/2000/svg">
<path d="M15.0392 14.1812C15.466 13.8008 15.8084 13.3304 16.043 12.8018C16.2776 12.2732 16.3991 11.6988 16.3991 11.1176C16.3991 10.0256 15.9777 8.97824 15.2276 8.20603C14.4775 7.43382 13.4602 7 12.3994 7C11.3387 7 10.3213 7.43382 9.57125 8.20603C8.82117 8.97824 8.39978 10.0256 8.39978 11.1176C8.39978 11.6988 8.52121 12.2732 8.75585 12.8018C8.99049 13.3304 9.33284 13.8008 9.75966 14.1812C8.63987 14.7032 7.68982 15.5462 7.02309 16.6094C6.35636 17.6726 6.00118 18.911 6 20.1765C6 20.3949 6.08428 20.6044 6.23429 20.7588C6.38431 20.9132 6.58777 21 6.79993 21C7.01208 21 7.21555 20.9132 7.36556 20.7588C7.51558 20.6044 7.59986 20.3949 7.59986 20.1765C7.59986 18.866 8.10552 17.6092 9.00562 16.6825C9.90571 15.7559 11.1265 15.2353 12.3994 15.2353C13.6723 15.2353 14.8931 15.7559 15.7932 16.6825C16.6933 17.6092 17.199 18.866 17.199 20.1765C17.199 20.3949 17.2833 20.6044 17.4333 20.7588C17.5833 20.9132 17.7868 21 17.9989 21C18.2111 21 18.4145 20.9132 18.5646 20.7588C18.7146 20.6044 18.7988 20.3949 18.7988 20.1765C18.7977 18.911 18.4425 17.6726 17.7758 16.6094C17.109 15.5462 16.159 14.7032 15.0392 14.1812ZM12.3994 13.5882C11.9248 13.5882 11.4608 13.4433 11.0662 13.1719C10.6715 12.9004 10.3639 12.5145 10.1823 12.0631C10.0007 11.6117 9.95315 11.1149 10.0458 10.6357C10.1383 10.1564 10.3669 9.7162 10.7025 9.37068C11.0381 9.02516 11.4657 8.78986 11.9312 8.69453C12.3968 8.5992 12.8793 8.64813 13.3178 8.83512C13.7563 9.02211 14.1311 9.33878 14.3948 9.74506C14.6585 10.1513 14.7992 10.629 14.7992 11.1176C14.7992 11.7729 14.5464 12.4013 14.0963 12.8646C13.6463 13.3279 13.0359 13.5882 12.3994 13.5882ZM21.7666 11.6365C21.6922 11.5593 21.6037 11.498 21.5063 11.4562C21.4088 11.4144 21.3042 11.3929 21.1986 11.3929C21.093 11.3929 20.9885 11.4144 20.891 11.4562C20.7935 11.498 20.705 11.5593 20.6307 11.6365L19.0308 13.2835L18.5349 12.7647C18.4605 12.6875 18.372 12.6263 18.2746 12.5844C18.1771 12.5426 18.0725 12.5211 17.9669 12.5211C17.8613 12.5211 17.7568 12.5426 17.6593 12.5844C17.5618 12.6263 17.4733 12.6875 17.399 12.7647C17.25 12.919 17.1664 13.1277 17.1664 13.3453C17.1664 13.5629 17.25 13.7716 17.399 13.9259L18.4709 15.0294C18.6208 15.1828 18.8235 15.2689 19.0348 15.2689C19.2462 15.2689 19.4489 15.1828 19.5988 15.0294L21.7346 12.8306C21.8153 12.7559 21.8805 12.6651 21.9261 12.5637C21.9717 12.4622 21.9967 12.3523 21.9997 12.2406C22.0027 12.1289 21.9836 12.0177 21.9435 11.9139C21.9034 11.81 21.8432 11.7156 21.7666 11.6365Z" fill="#545656"/>
</svg>
