<svg width="28" height="28" viewBox="0 0 28 28" fill="none" xmlns="http://www.w3.org/2000/svg">
<path d="M14.75 15.6H11.75C11.5511 15.6 11.3603 15.6843 11.2197 15.8343C11.079 15.9843 11 16.1878 11 16.4C11 16.6122 11.079 16.8157 11.2197 16.9657C11.3603 17.1157 11.5511 17.2 11.75 17.2H14.75C14.9489 17.2 15.1397 17.1157 15.2803 16.9657C15.421 16.8157 15.5 16.6122 15.5 16.4C15.5 16.1878 15.421 15.9843 15.2803 15.8343C15.1397 15.6843 14.9489 15.6 14.75 15.6ZM17.75 7.6H16.865C16.7103 7.13316 16.4239 6.7288 16.0453 6.44235C15.6667 6.1559 15.2142 6.00139 14.75 6H13.25C12.7858 6.00139 12.3333 6.1559 11.9547 6.44235C11.5761 6.7288 11.2897 7.13316 11.135 7.6H10.25C9.65326 7.6 9.08097 7.85286 8.65901 8.30294C8.23705 8.75303 8 9.36348 8 10V19.6C8 20.2365 8.23705 20.847 8.65901 21.2971C9.08097 21.7471 9.65326 22 10.25 22H17.75C18.3467 22 18.919 21.7471 19.341 21.2971C19.7629 20.847 20 20.2365 20 19.6V10C20 9.36348 19.7629 8.75303 19.341 8.30294C18.919 7.85286 18.3467 7.6 17.75 7.6ZM12.5 8.4C12.5 8.18783 12.579 7.98434 12.7197 7.83431C12.8603 7.68429 13.0511 7.6 13.25 7.6H14.75C14.9489 7.6 15.1397 7.68429 15.2803 7.83431C15.421 7.98434 15.5 8.18783 15.5 8.4V9.2H12.5V8.4ZM18.5 19.6C18.5 19.8122 18.421 20.0157 18.2803 20.1657C18.1397 20.3157 17.9489 20.4 17.75 20.4H10.25C10.0511 20.4 9.86032 20.3157 9.71967 20.1657C9.57902 20.0157 9.5 19.8122 9.5 19.6V10C9.5 9.78783 9.57902 9.58434 9.71967 9.43431C9.86032 9.28429 10.0511 9.2 10.25 9.2H11V10C11 10.2122 11.079 10.4157 11.2197 10.5657C11.3603 10.7157 11.5511 10.8 11.75 10.8H16.25C16.4489 10.8 16.6397 10.7157 16.7803 10.5657C16.921 10.4157 17 10.2122 17 10V9.2H17.75C17.9489 9.2 18.1397 9.28429 18.2803 9.43431C18.421 9.58434 18.5 9.78783 18.5 10V19.6ZM16.25 12.4H11.75C11.5511 12.4 11.3603 12.4843 11.2197 12.6343C11.079 12.7843 11 12.9878 11 13.2C11 13.4122 11.079 13.6157 11.2197 13.7657C11.3603 13.9157 11.5511 14 11.75 14H16.25C16.4489 14 16.6397 13.9157 16.7803 13.7657C16.921 13.6157 17 13.4122 17 13.2C17 12.9878 16.921 12.7843 16.7803 12.6343C16.6397 12.4843 16.4489 12.4 16.25 12.4Z" fill="#545656"/>
</svg>
