<svg width="28" height="28" viewBox="0 0 28 28" fill="none" xmlns="http://www.w3.org/2000/svg">
<path d="M10 12.4C9.84178 12.4 9.6871 12.4469 9.55554 12.5348C9.42398 12.6227 9.32145 12.7477 9.2609 12.8939C9.20035 13.04 9.1845 13.2009 9.21537 13.3561C9.24624 13.5113 9.32243 13.6538 9.43431 13.7657C9.5462 13.8776 9.68874 13.9538 9.84393 13.9846C9.99911 14.0155 10.16 13.9997 10.3061 13.9391C10.4523 13.8786 10.5773 13.776 10.6652 13.6445C10.7531 13.5129 10.8 13.3582 10.8 13.2C10.8 12.9878 10.7157 12.7843 10.5657 12.6343C10.4157 12.4843 10.2122 12.4 10 12.4ZM19.6 9.2H18.8V6.8C18.8 6.58783 18.7157 6.38434 18.5657 6.23431C18.4157 6.08429 18.2122 6 18 6H10C9.78783 6 9.58434 6.08429 9.43431 6.23431C9.28429 6.38434 9.2 6.58783 9.2 6.8V9.2H8.4C7.76348 9.2 7.15303 9.45286 6.70294 9.90294C6.25286 10.353 6 10.9635 6 11.6V16.4C6 17.0365 6.25286 17.647 6.70294 18.0971C7.15303 18.5471 7.76348 18.8 8.4 18.8H9.2V21.2C9.2 21.4122 9.28429 21.6157 9.43431 21.7657C9.58434 21.9157 9.78783 22 10 22H18C18.2122 22 18.4157 21.9157 18.5657 21.7657C18.7157 21.6157 18.8 21.4122 18.8 21.2V18.8H19.6C20.2365 18.8 20.847 18.5471 21.2971 18.0971C21.7471 17.647 22 17.0365 22 16.4V11.6C22 10.9635 21.7471 10.353 21.2971 9.90294C20.847 9.45286 20.2365 9.2 19.6 9.2ZM10.8 7.6H17.2V9.2H10.8V7.6ZM17.2 20.4H10.8V17.2H17.2V20.4ZM20.4 16.4C20.4 16.6122 20.3157 16.8157 20.1657 16.9657C20.0157 17.1157 19.8122 17.2 19.6 17.2H18.8V16.4C18.8 16.1878 18.7157 15.9843 18.5657 15.8343C18.4157 15.6843 18.2122 15.6 18 15.6H10C9.78783 15.6 9.58434 15.6843 9.43431 15.8343C9.28429 15.9843 9.2 16.1878 9.2 16.4V17.2H8.4C8.18783 17.2 7.98434 17.1157 7.83431 16.9657C7.68429 16.8157 7.6 16.6122 7.6 16.4V11.6C7.6 11.3878 7.68429 11.1843 7.83431 11.0343C7.98434 10.8843 8.18783 10.8 8.4 10.8H19.6C19.8122 10.8 20.0157 10.8843 20.1657 11.0343C20.3157 11.1843 20.4 11.3878 20.4 11.6V16.4Z" fill="white"/>
</svg>
