<svg width="28" height="28" viewBox="0 0 28 28" fill="none" xmlns="http://www.w3.org/2000/svg">
<path d="M15.6 10.8H16.4C16.6122 10.8 16.8157 10.7157 16.9657 10.5657C17.1157 10.4157 17.2 10.2122 17.2 10C17.2 9.78783 17.1157 9.58434 16.9657 9.43431C16.8157 9.28429 16.6122 9.2 16.4 9.2H15.6C15.3878 9.2 15.1843 9.28429 15.0343 9.43431C14.8843 9.58434 14.8 9.78783 14.8 10C14.8 10.2122 14.8843 10.4157 15.0343 10.5657C15.1843 10.7157 15.3878 10.8 15.6 10.8ZM15.6 14H16.4C16.6122 14 16.8157 13.9157 16.9657 13.7657C17.1157 13.6157 17.2 13.4122 17.2 13.2C17.2 12.9878 17.1157 12.7843 16.9657 12.6343C16.8157 12.4843 16.6122 12.4 16.4 12.4H15.6C15.3878 12.4 15.1843 12.4843 15.0343 12.6343C14.8843 12.7843 14.8 12.9878 14.8 13.2C14.8 13.4122 14.8843 13.6157 15.0343 13.7657C15.1843 13.9157 15.3878 14 15.6 14ZM11.6 10.8H12.4C12.6122 10.8 12.8157 10.7157 12.9657 10.5657C13.1157 10.4157 13.2 10.2122 13.2 10C13.2 9.78783 13.1157 9.58434 12.9657 9.43431C12.8157 9.28429 12.6122 9.2 12.4 9.2H11.6C11.3878 9.2 11.1843 9.28429 11.0343 9.43431C10.8843 9.58434 10.8 9.78783 10.8 10C10.8 10.2122 10.8843 10.4157 11.0343 10.5657C11.1843 10.7157 11.3878 10.8 11.6 10.8ZM11.6 14H12.4C12.6122 14 12.8157 13.9157 12.9657 13.7657C13.1157 13.6157 13.2 13.4122 13.2 13.2C13.2 12.9878 13.1157 12.7843 12.9657 12.6343C12.8157 12.4843 12.6122 12.4 12.4 12.4H11.6C11.3878 12.4 11.1843 12.4843 11.0343 12.6343C10.8843 12.7843 10.8 12.9878 10.8 13.2C10.8 13.4122 10.8843 13.6157 11.0343 13.7657C11.1843 13.9157 11.3878 14 11.6 14ZM21.2 20.4H20.4V6.8C20.4 6.58783 20.3157 6.38434 20.1657 6.23431C20.0157 6.08429 19.8122 6 19.6 6H8.4C8.18783 6 7.98434 6.08429 7.83431 6.23431C7.68429 6.38434 7.6 6.58783 7.6 6.8V20.4H6.8C6.58783 20.4 6.38434 20.4843 6.23431 20.6343C6.08429 20.7843 6 20.9878 6 21.2C6 21.4122 6.08429 21.6157 6.23431 21.7657C6.38434 21.9157 6.58783 22 6.8 22H21.2C21.4122 22 21.6157 21.9157 21.7657 21.7657C21.9157 21.6157 22 21.4122 22 21.2C22 20.9878 21.9157 20.7843 21.7657 20.6343C21.6157 20.4843 21.4122 20.4 21.2 20.4ZM14.8 20.4H13.2V17.2H14.8V20.4ZM18.8 20.4H16.4V16.4C16.4 16.1878 16.3157 15.9843 16.1657 15.8343C16.0157 15.6843 15.8122 15.6 15.6 15.6H12.4C12.1878 15.6 11.9843 15.6843 11.8343 15.8343C11.6843 15.9843 11.6 16.1878 11.6 16.4V20.4H9.2V7.6H18.8V20.4Z" fill="#545656"/>
</svg>
