<svg width="28" height="28" viewBox="0 0 28 28" fill="none" xmlns="http://www.w3.org/2000/svg">
<path d="M13.9977 20.3958H8.3993C8.18719 20.3958 7.98377 20.3116 7.83378 20.1616C7.6838 20.0116 7.59954 19.8082 7.59954 19.5961V8.3993C7.59954 8.18719 7.6838 7.98377 7.83378 7.83378C7.98377 7.6838 8.18719 7.59954 8.3993 7.59954H12.3981V9.99884C12.3981 10.6352 12.6509 11.2454 13.1009 11.6954C13.5508 12.1454 14.1611 12.3981 14.7975 12.3981H17.1968V13.1979C17.1968 13.41 17.281 13.6134 17.431 13.7634C17.581 13.9134 17.7844 13.9977 17.9965 13.9977C18.2086 13.9977 18.4121 13.9134 18.562 13.7634C18.712 13.6134 18.7963 13.41 18.7963 13.1979V11.5984C18.7963 11.5984 18.7963 11.5984 18.7963 11.5504C18.788 11.4769 18.7719 11.4045 18.7483 11.3345V11.2625C18.7099 11.1802 18.6586 11.1047 18.5963 11.0385L13.7977 6.23993C13.7316 6.17772 13.656 6.12643 13.5738 6.08797C13.5499 6.08458 13.5257 6.08458 13.5018 6.08797C13.4206 6.04138 13.3309 6.01147 13.2379 6H8.3993C7.76297 6 7.1527 6.25278 6.70274 6.70274C6.25278 7.1527 6 7.76297 6 8.3993V19.5961C6 20.2324 6.25278 20.8427 6.70274 21.2926C7.1527 21.7426 7.76297 21.9954 8.3993 21.9954H13.9977C14.2098 21.9954 14.4132 21.9111 14.5632 21.7611C14.7132 21.6111 14.7975 21.4077 14.7975 21.1956C14.7975 20.9835 14.7132 20.7801 14.5632 20.6301C14.4132 20.4801 14.2098 20.3958 13.9977 20.3958ZM13.9977 8.72721L16.0691 10.7986H14.7975C14.5853 10.7986 14.3819 10.7143 14.2319 10.5644C14.0819 10.4144 13.9977 10.211 13.9977 9.99884V8.72721ZM21.7634 20.6278L20.8277 19.7C21.1268 19.178 21.2465 18.5723 21.1685 17.9757C21.0905 17.3791 20.8191 16.8246 20.3958 16.397C20.0064 15.9936 19.5044 15.7169 18.9555 15.6029C18.4065 15.4889 17.8359 15.5429 17.318 15.7578C16.8002 15.9727 16.359 16.3386 16.0521 16.8078C15.7452 17.277 15.5867 17.8278 15.5972 18.3884C15.5945 18.8708 15.7179 19.3456 15.9552 19.7656C16.1925 20.1856 16.5356 20.5362 16.9502 20.7828C17.3649 21.0293 17.8368 21.1631 18.3191 21.171C18.8015 21.1789 19.2775 21.0606 19.7 20.8277L20.6278 21.7634C20.7021 21.8384 20.7906 21.8979 20.888 21.9385C20.9855 21.9791 21.09 22 21.1956 22C21.3012 22 21.4057 21.9791 21.5032 21.9385C21.6006 21.8979 21.6891 21.8384 21.7634 21.7634C21.8384 21.6891 21.8979 21.6006 21.9385 21.5032C21.9791 21.4057 22 21.3012 22 21.1956C22 21.09 21.9791 20.9855 21.9385 20.888C21.8979 20.7906 21.8384 20.7021 21.7634 20.6278ZM19.2282 19.2282C18.9997 19.443 18.698 19.5626 18.3844 19.5626C18.0708 19.5626 17.7691 19.443 17.5407 19.2282C17.3205 19.0041 17.197 18.7026 17.1968 18.3884C17.1951 18.2307 17.2254 18.0742 17.2859 17.9285C17.3464 17.7828 17.4358 17.6509 17.5487 17.5407C17.7619 17.3286 18.0478 17.2056 18.3484 17.1968C18.5101 17.1868 18.6721 17.2104 18.8243 17.266C18.9764 17.3217 19.1154 17.4081 19.2326 17.52C19.3497 17.6319 19.4425 17.7668 19.505 17.9162C19.5676 18.0657 19.5986 18.2264 19.5961 18.3884C19.5894 18.706 19.4571 19.008 19.2282 19.2282Z" fill="#545656"/>
</svg>
