<svg width="12" height="12" viewBox="0 0 12 12" fill="none" xmlns="http://www.w3.org/2000/svg">
<path d="M11.4545 1.11534e-05H7.63636C7.32408 -0.00126533 7.02129 0.107063 6.78098 0.306041C6.54066 0.505019 6.37813 0.781974 6.32182 1.08844L5.82 3.83674C5.78532 4.02821 5.79323 4.22496 5.84319 4.41304C5.89315 4.60113 5.98392 4.77596 6.10909 4.92517C6.23495 5.07446 6.39187 5.19462 6.56895 5.27732C6.74603 5.36002 6.93903 5.40328 7.13455 5.40408H8.72727L8.59091 5.76327C8.49024 6.02959 8.45527 6.31617 8.48896 6.59882C8.52264 6.88147 8.624 7.15188 8.78446 7.38722C8.94492 7.62256 9.15978 7.81593 9.4109 7.951C9.66202 8.08607 9.94202 8.15887 10.2273 8.16326C10.3331 8.1641 10.4369 8.13418 10.526 8.07717C10.6151 8.02015 10.6857 7.9385 10.7291 7.84217L11.9509 5.08844C11.9787 5.02845 11.9954 4.9639 12 4.89796V0.544228C12 0.399893 11.9425 0.261469 11.8402 0.159409C11.7379 0.0573481 11.5992 1.11534e-05 11.4545 1.11534e-05ZM10.9091 4.75102L9.91091 6.99864C9.81349 6.94575 9.72952 6.87128 9.66545 6.78095C9.60126 6.69029 9.56068 6.58513 9.54735 6.47493C9.53402 6.36473 9.54836 6.25295 9.58909 6.14966L9.79636 5.60544C9.85089 5.4643 9.86947 5.31186 9.85043 5.16179C9.83139 5.01173 9.77533 4.86872 9.68727 4.74558C9.60056 4.62292 9.48522 4.52315 9.35124 4.45488C9.21725 4.38662 9.06862 4.35191 8.91818 4.35374H7.12364C7.0874 4.35385 7.05157 4.34611 7.01862 4.33108C6.98566 4.31605 6.95636 4.29408 6.93273 4.26667C6.89039 4.20864 6.87274 4.13626 6.88364 4.06531L7.38545 1.34423C7.38311 1.3105 7.38794 1.27665 7.39965 1.24493C7.41135 1.2132 7.42965 1.1843 7.45336 1.16014C7.47706 1.13597 7.50562 1.11709 7.53716 1.10473C7.56871 1.09238 7.60252 1.08683 7.63636 1.08844H10.9091V4.75102ZM4.87636 6.55782H3.3L3.43636 6.19864C3.53558 5.93076 3.56852 5.64294 3.53237 5.35964C3.49623 5.07634 3.39207 4.80593 3.22875 4.57139C3.06544 4.33685 2.84778 4.14512 2.59429 4.01248C2.3408 3.87984 2.05896 3.81022 1.77273 3.80953C1.66688 3.80869 1.56307 3.83861 1.47396 3.89562C1.38486 3.95264 1.31431 4.03429 1.27091 4.13062L0.0490909 6.88435C0.0178338 6.95275 0.0011189 7.02687 0 7.10204V11.4558C0 11.6001 0.0574673 11.7385 0.15976 11.8406C0.262052 11.9427 0.400791 12 0.545455 12H4.36364C4.67592 12.0013 4.97871 11.8929 5.21902 11.694C5.45934 11.495 5.62187 11.218 5.67818 10.9116L6.18 8.19047C6.21468 7.999 6.20677 7.80225 6.15681 7.61417C6.10685 7.42608 6.01608 7.25125 5.89091 7.10204C5.77264 6.94214 5.6203 6.8104 5.44487 6.7163C5.26944 6.62219 5.07528 6.56807 4.87636 6.55782ZM4.61455 10.683C4.60518 10.7416 4.57432 10.7947 4.52796 10.8319C4.4816 10.8691 4.42304 10.8878 4.36364 10.8843H1.09091V7.22177L2.08909 4.97415C2.18651 5.02704 2.27048 5.10151 2.33455 5.19184C2.39874 5.2825 2.43932 5.38766 2.45265 5.49786C2.46598 5.60806 2.45164 5.71984 2.41091 5.82313L2.20364 6.36735C2.14911 6.50849 2.13053 6.66093 2.14957 6.81099C2.16861 6.96106 2.22467 7.10407 2.31273 7.22721C2.39823 7.35188 2.51302 7.45377 2.64709 7.52397C2.78116 7.59417 2.93041 7.63055 3.08182 7.62993H4.87636C4.9126 7.62983 4.94843 7.63756 4.98138 7.65259C5.01434 7.66762 5.04364 7.6896 5.06727 7.717C5.10962 7.77504 5.12726 7.84741 5.11636 7.91836L4.61455 10.683Z" fill="white"/>
</svg>
