<svg width="7" height="12" viewBox="0 0 7 12" fill="none" xmlns="http://www.w3.org/2000/svg">
<path d="M0.292943 5.33822L5.44326 0.265572C5.52786 0.181421 5.6285 0.114629 5.73938 0.0690483C5.85027 0.0234675 5.9692 0 6.08933 0C6.20945 0 6.32839 0.0234675 6.43927 0.0690483C6.55016 0.114629 6.6508 0.181421 6.73539 0.265572C6.90487 0.433789 7 0.661341 7 0.898531C7 1.13572 6.90487 1.36327 6.73539 1.53149L2.23114 6.02056L6.73539 10.4647C6.90487 10.633 7 10.8605 7 11.0977C7 11.3349 6.90487 11.5624 6.73539 11.7307C6.65112 11.8155 6.55062 11.883 6.43972 11.9292C6.32882 11.9754 6.20972 11.9995 6.08933 12C5.96894 11.9995 5.84984 11.9754 5.73894 11.9292C5.62804 11.883 5.52754 11.8155 5.44326 11.7307L0.292943 6.65801C0.200579 6.57393 0.126865 6.4719 0.076447 6.35832C0.0260291 6.24475 0 6.1221 0 5.99811C0 5.87412 0.0260291 5.75148 0.076447 5.63791C0.126865 5.52433 0.200579 5.42229 0.292943 5.33822Z" fill="#6A6A6A"/>
</svg>
