<svg width="16" height="16" viewBox="0 0 16 16" fill="none" xmlns="http://www.w3.org/2000/svg">
<path d="M12.6212 7.19078L7.19101 2.33851C7.07195 2.23125 6.93031 2.14611 6.77424 2.08801C6.61818 2.02991 6.45078 2 6.28171 2C6.11265 2 5.94525 2.02991 5.78919 2.08801C5.63312 2.14611 5.49148 2.23125 5.37242 2.33851C5.13389 2.55293 5 2.84298 5 3.14532C5 3.44765 5.13389 3.7377 5.37242 3.95212L9.90609 8.00331L5.37242 12.0545C5.13389 12.2689 5 12.559 5 12.8613C5 13.1636 5.13389 13.4537 5.37242 13.6681C5.49209 13.7742 5.63401 13.8581 5.79005 13.915C5.94608 13.972 6.11317 14.0009 6.28171 14C6.45026 14.0009 6.61734 13.972 6.77338 13.915C6.92942 13.8581 7.07134 13.7742 7.19101 13.6681L12.6212 8.81583C12.7412 8.70945 12.8365 8.58288 12.9015 8.44342C12.9665 8.30396 13 8.15438 13 8.00331C13 7.85223 12.9665 7.70265 12.9015 7.5632C12.8365 7.42374 12.7412 7.29717 12.6212 7.19078Z" fill="#545656"/>
</svg>
