<svg width="16" height="16" viewBox="0 0 16 16" fill="none" xmlns="http://www.w3.org/2000/svg">
<path d="M11.6022 9.26605L6.19276 12.8796C6.07152 12.9585 5.93453 13 5.79517 13C5.65581 13 5.51883 12.9585 5.39759 12.8796C5.27668 12.7995 5.17629 12.6842 5.1065 12.5454C5.03671 12.4065 4.99998 12.2491 5 12.0888V4.91304C4.99998 4.75274 5.03671 4.59526 5.1065 4.45643C5.17629 4.3176 5.27668 4.20232 5.39759 4.12217C5.51933 4.04447 5.6559 4.0025 5.79517 4C5.93435 4.00328 6.07076 4.0452 6.19276 4.12217L11.6022 7.71003C11.7231 7.79014 11.8236 7.90541 11.8934 8.04424C11.9632 8.18307 12 8.34057 12 8.5009C12 8.66122 11.9632 8.81872 11.8934 8.95755C11.8236 9.09639 11.7231 9.21166 11.6022 9.29177V9.26605Z" fill="#545656"/>
</svg>
