<svg width="16" height="16" viewBox="0 0 16 16" fill="none" xmlns="http://www.w3.org/2000/svg">
<path d="M5.05 2C4.77152 2 4.50445 2.12643 4.30754 2.35147C4.11062 2.57652 4 2.88174 4 3.2V12.8C4 13.1183 4.11062 13.4235 4.30754 13.6485C4.50445 13.8736 4.77152 14 5.05 14C5.32848 14 5.59555 13.8736 5.79246 13.6485C5.98938 13.4235 6.1 13.1183 6.1 12.8V3.2C6.1 2.88174 5.98938 2.57652 5.79246 2.35147C5.59555 2.12643 5.32848 2 5.05 2ZM10.95 2C10.6715 2 10.4045 2.12643 10.2075 2.35147C10.0106 2.57652 9.9 2.88174 9.9 3.2V12.8C9.9 13.1183 10.0106 13.4235 10.2075 13.6485C10.4045 13.8736 10.6715 14 10.95 14C11.2285 14 11.4955 13.8736 11.6925 13.6485C11.8894 13.4235 12 13.1183 12 12.8V3.2C12 2.88174 11.8894 2.57652 11.6925 2.35147C11.4955 2.12643 11.2285 2 10.95 2Z" fill="#545656"/>
</svg>
