<svg width="16" height="16" viewBox="0 0 16 16" fill="none" xmlns="http://www.w3.org/2000/svg">
<path d="M3.37883 7.19078L8.80899 2.33851C8.92805 2.23125 9.06969 2.14611 9.22576 2.08801C9.38182 2.02991 9.54922 2 9.71829 2C9.88735 2 10.0547 2.02991 10.2108 2.08801C10.3669 2.14611 10.5085 2.23125 10.6276 2.33851C10.8661 2.55293 11 2.84298 11 3.14532C11 3.44765 10.8661 3.7377 10.6276 3.95212L6.09391 8.00331L10.6276 12.0545C10.8661 12.2689 11 12.559 11 12.8613C11 13.1636 10.8661 13.4537 10.6276 13.6681C10.5079 13.7742 10.366 13.8581 10.21 13.915C10.0539 13.972 9.88683 14.0009 9.71829 14C9.54974 14.0009 9.38266 13.972 9.22662 13.915C9.07058 13.8581 8.92866 13.7742 8.80899 13.6681L3.37883 8.81583C3.25879 8.70945 3.16351 8.58288 3.09849 8.44342C3.03348 8.30396 3 8.15438 3 8.00331C3 7.85223 3.03348 7.70265 3.09849 7.5632C3.16351 7.42374 3.25879 7.29717 3.37883 7.19078Z" fill="#545656"/>
</svg>
