<svg width="23" height="23" viewBox="0 0 23 23" fill="none" xmlns="http://www.w3.org/2000/svg">
<path d="M9.46629 6.88867C9.22012 6.88867 8.98402 6.98232 8.80995 7.14902C8.63588 7.31572 8.53809 7.54181 8.53809 7.77756V14.8887C8.53809 15.1244 8.63588 15.3505 8.80995 15.5172C8.98402 15.6839 9.22012 15.7776 9.46629 15.7776C9.71247 15.7776 9.94856 15.6839 10.1226 15.5172C10.2967 15.3505 10.3945 15.1244 10.3945 14.8887V7.77756C10.3945 7.54181 10.2967 7.31572 10.1226 7.14902C9.94856 6.98232 9.71247 6.88867 9.46629 6.88867ZM13.1791 6.88867C12.9329 6.88867 12.6968 6.98232 12.5228 7.14902C12.3487 7.31572 12.2509 7.54181 12.2509 7.77756V14.8887C12.2509 15.1244 12.3487 15.3505 12.5228 15.5172C12.6968 15.6839 12.9329 15.7776 13.1791 15.7776C13.4253 15.7776 13.6614 15.6839 13.8355 15.5172C14.0095 15.3505 14.1073 15.1244 14.1073 14.8887V7.77756C14.1073 7.54181 14.0095 7.31572 13.8355 7.14902C13.6614 6.98232 13.4253 6.88867 13.1791 6.88867Z" fill="#545656"/>
</svg>
