<svg width="23" height="23" viewBox="0 0 23 23" fill="none" xmlns="http://www.w3.org/2000/svg">
<path d="M9.60989 11.3145L12.766 8.32782C12.9321 8.16975 13.0253 7.95592 13.0253 7.73303C13.0253 7.51014 12.9321 7.29631 12.766 7.13823C12.6831 7.05915 12.5845 6.99639 12.4759 6.95356C12.3672 6.91072 12.2507 6.88867 12.133 6.88867C12.0153 6.88867 11.8988 6.91072 11.7901 6.95356C11.6815 6.99639 11.5829 7.05915 11.5 7.13823L7.71978 10.7154C7.63621 10.7939 7.56989 10.8872 7.52462 10.99C7.47936 11.0928 7.45605 11.2031 7.45605 11.3145C7.45605 11.4258 7.47936 11.5361 7.52462 11.6389C7.56989 11.7417 7.63621 11.835 7.71978 11.9135L11.5 15.5329C11.5833 15.6111 11.6821 15.6729 11.7907 15.7149C11.8994 15.7569 12.0157 15.7782 12.133 15.7775C12.2504 15.7782 12.3667 15.7569 12.4753 15.7149C12.5839 15.6729 12.6827 15.6111 12.766 15.5329C12.9321 15.3748 13.0253 15.161 13.0253 14.9381C13.0253 14.7152 12.9321 14.5014 12.766 14.3433L9.60989 11.3145Z" fill="#545656"/>
</svg>
