<svg width="23" height="23" viewBox="0 0 23 23" fill="none" xmlns="http://www.w3.org/2000/svg">
<path d="M13.4169 11.6471L10.3 8.56713C10.136 8.40412 10.0439 8.1836 10.0439 7.95375C10.0439 7.7239 10.136 7.50338 10.3 7.34037C10.3818 7.25882 10.4792 7.19409 10.5865 7.14992C10.6938 7.10575 10.8089 7.08301 10.9251 7.08301C11.0414 7.08301 11.1564 7.10575 11.2637 7.14992C11.371 7.19409 11.4684 7.25882 11.5503 7.34037L15.2835 11.0294C15.366 11.1103 15.4315 11.2065 15.4762 11.3125C15.5209 11.4185 15.5439 11.5322 15.5439 11.6471C15.5439 11.762 15.5209 11.8757 15.4762 11.9817C15.4315 12.0877 15.366 12.184 15.2835 12.2648L11.5503 15.9973C11.468 16.078 11.3704 16.1418 11.2631 16.1851C11.1559 16.2284 11.041 16.2503 10.9251 16.2497C10.8092 16.2503 10.6944 16.2284 10.5871 16.1851C10.4798 16.1418 10.3823 16.078 10.3 15.9973C10.136 15.8343 10.0439 15.6138 10.0439 15.384C10.0439 15.1541 10.136 14.9336 10.3 14.7706L13.4169 11.6471Z" fill="#545656"/>
</svg>
