<svg width="23" height="22" viewBox="0 0 23 22" fill="none" xmlns="http://www.w3.org/2000/svg">
<path d="M14.659 11.6809L10.0224 14.893C9.91844 14.9631 9.80103 15 9.68158 15C9.56212 15 9.44471 14.9631 9.34079 14.893C9.23716 14.8218 9.15111 14.7193 9.09128 14.5959C9.03146 14.4725 8.99998 14.3325 9 14.19V7.81159C8.99998 7.6691 9.03146 7.52912 9.09128 7.40572C9.15111 7.28231 9.23716 7.17984 9.34079 7.10859C9.44514 7.03953 9.5622 7.00222 9.68158 7C9.80087 7.00292 9.91779 7.04017 10.0224 7.10859L14.659 10.2978C14.7627 10.369 14.8488 10.4715 14.9086 10.5949C14.9685 10.7183 15 10.8583 15 11.0008C15 11.1433 14.9685 11.2833 14.9086 11.4067C14.8488 11.5301 14.7627 11.6326 14.659 11.7038V11.6809Z" fill="#545656"/>
</svg>
