<svg width="20" height="20" viewBox="0 0 20 20" fill="none" xmlns="http://www.w3.org/2000/svg">
<path d="M10 6C9.20887 6 8.43552 6.2346 7.77772 6.67412C7.11992 7.11365 6.60723 7.73836 6.30448 8.46927C6.00173 9.20017 5.92252 10.0044 6.07686 10.7804C6.2312 11.5563 6.61216 12.269 7.17157 12.8284C7.73098 13.3878 8.44372 13.7688 9.21964 13.9231C9.99556 14.0775 10.7998 13.9983 11.5307 13.6955C12.2616 13.3928 12.8864 12.8801 13.3259 12.2223C13.7654 11.5645 14 10.7911 14 10C14 8.93913 13.5786 7.92172 12.8284 7.17157C12.0783 6.42143 11.0609 6 10 6ZM10 12.4C9.52532 12.4 9.06131 12.2592 8.66663 11.9955C8.27195 11.7318 7.96434 11.357 7.78269 10.9184C7.60104 10.4799 7.55351 9.99734 7.64612 9.53178C7.73872 9.06623 7.9673 8.63859 8.30294 8.30294C8.63859 7.9673 9.06623 7.73872 9.53178 7.64612C9.99734 7.55351 10.4799 7.60104 10.9184 7.78269C11.357 7.96434 11.7318 8.27195 11.9955 8.66663C12.2592 9.06131 12.4 9.52532 12.4 10C12.4 10.6365 12.1471 11.247 11.6971 11.6971C11.247 12.1471 10.6365 12.4 10 12.4ZM14 5.2C13.8418 5.2 13.6871 5.24692 13.5555 5.33482C13.424 5.42273 13.3214 5.54767 13.2609 5.69385C13.2003 5.84003 13.1845 6.00089 13.2154 6.15607C13.2462 6.31126 13.3224 6.4538 13.4343 6.56569C13.5462 6.67757 13.6887 6.75376 13.8439 6.78463C13.9991 6.8155 14.16 6.79965 14.3061 6.7391C14.4523 6.67855 14.5773 6.57602 14.6652 6.44446C14.7531 6.3129 14.8 6.15823 14.8 6C14.8 5.78783 14.7157 5.58434 14.5657 5.43431C14.4157 5.28429 14.2122 5.2 14 5.2ZM17.952 6.992C17.9387 6.30834 17.8089 5.63196 17.568 4.992C17.3446 4.40965 17.0013 3.88079 16.5602 3.43976C16.1192 2.99872 15.5903 2.65537 15.008 2.432C14.368 2.19112 13.6917 2.06125 13.008 2.048C12.232 2 11.976 2 10 2C8.024 2 7.768 2 6.992 2.048C6.30834 2.06125 5.63196 2.19112 4.992 2.432C4.40965 2.65537 3.88079 2.99872 3.43976 3.43976C2.99872 3.88079 2.65537 4.40965 2.432 4.992C2.19112 5.63196 2.06125 6.30834 2.048 6.992C2 7.776 2 8.032 2 10C2 11.968 2 12.224 2.048 13.008C2.06125 13.6917 2.19112 14.368 2.432 15.008C2.65537 15.5903 2.99872 16.1192 3.43976 16.5602C3.88079 17.0013 4.40965 17.3446 4.992 17.568C5.63196 17.8089 6.30834 17.9387 6.992 17.952C7.792 17.952 8.024 18 10 18C11.976 18 12.232 18 13.008 17.952C13.6917 17.9387 14.368 17.8089 15.008 17.568C15.5903 17.3446 16.1192 17.0013 16.5602 16.5602C17.0013 16.1192 17.3446 15.5903 17.568 15.008C17.8089 14.368 17.9387 13.6917 17.952 13.008C17.952 12.208 18 11.968 18 10C18 8.032 18 7.776 17.952 6.992ZM16.352 12.936C16.338 13.4437 16.2435 13.9459 16.072 14.424C15.9302 14.8019 15.7061 15.1435 15.416 15.424C15.1371 15.7143 14.7949 15.9361 14.416 16.072C13.9368 16.2505 13.4312 16.3478 12.92 16.36C12.168 16.36 11.936 16.4 9.992 16.4C8.048 16.4 7.824 16.4 7.072 16.4C6.56162 16.3868 6.0566 16.2923 5.576 16.12C5.19813 15.9782 4.85654 15.7541 4.576 15.464C4.28572 15.1851 4.06394 14.8429 3.928 14.464C3.75024 13.9874 3.65292 13.4845 3.64 12.976C3.64 12.176 3.64 11.976 3.64 10.04C3.64 8.104 3.64 7.872 3.64 7.104C3.65379 6.59297 3.75107 6.08763 3.928 5.608C4.06605 5.23251 4.28763 4.8933 4.576 4.616C4.85486 4.32572 5.19713 4.10394 5.576 3.968C6.05519 3.78952 6.56079 3.69218 7.072 3.68C7.824 3.6 8.056 3.6 10 3.6C11.944 3.6 12.176 3.6 12.928 3.6C13.4417 3.61306 13.9498 3.71036 14.432 3.888C14.8075 4.02605 15.1467 4.24763 15.424 4.536C15.7143 4.81486 15.9361 5.15713 16.072 5.536C16.2678 6.02285 16.3788 6.53967 16.4 7.064C16.4 7.864 16.44 8.064 16.44 10C16.44 11.936 16.4 12.168 16.4 12.936H16.352Z" fill="#6A6A6A"/>
</svg>
