<svg width="20" height="20" viewBox="0 0 20 20" fill="none" xmlns="http://www.w3.org/2000/svg">
<path d="M17.9963 8.22918C18.0323 7.1188 17.8047 6.01673 17.3349 5.0253C17.0161 4.6185 16.5737 4.34397 16.0848 4.24955C14.0625 4.05369 12.0317 3.97341 10.0014 4.00906C7.97838 3.97179 5.95498 4.04948 3.93973 4.24179C3.54131 4.31915 3.17259 4.51861 2.87858 4.81585C2.22445 5.45973 2.15177 6.5613 2.07909 7.49221C1.97364 9.16595 1.97364 10.8454 2.07909 12.5191C2.10012 13.0431 2.17321 13.5631 2.29713 14.0706C2.38477 14.4624 2.56207 14.8249 2.81317 15.1256C3.10918 15.4386 3.48648 15.6494 3.89612 15.7307C5.46307 15.9372 7.04193 16.0227 8.62041 15.9867C11.1643 16.0255 13.3956 15.9867 16.0339 15.7695C16.4536 15.6932 16.8415 15.4821 17.1459 15.1644C17.3494 14.9472 17.5014 14.6812 17.5893 14.3887C17.8492 13.5374 17.9769 12.6464 17.9672 11.7511C17.9963 11.3167 17.9963 8.69463 17.9963 8.22918ZM8.35876 12.2166V7.41463L12.6615 9.82723C11.455 10.5409 9.86327 11.3477 8.35876 12.2166Z" fill="#6A6A6A"/>
</svg>
