<svg width="20" height="20" viewBox="0 0 20 20" fill="none" xmlns="http://www.w3.org/2000/svg">
<path d="M12.5128 7.09838C12.5128 5.73895 11.6413 5 10.5385 5C9.42446 5 8.56141 5.73895 8.55859 7.09838C8.56141 8.44935 9.42446 9.19676 10.5385 9.19676C11.6413 9.19676 12.5128 8.45781 12.5128 7.09838ZM9.66419 7.09838C9.66419 6.34533 9.97444 5.93637 10.5385 5.93637C11.097 5.93637 11.41 6.34533 11.4072 7.09838C11.41 7.84861 11.097 8.25756 10.5385 8.26038C9.97444 8.25756 9.66419 7.84861 9.66419 7.09838Z" fill="#6A6A6A"/>
<path d="M16.5516 5.05641H15.4799V7.25068H15.446L13.9512 5.05641H13.0374V9.14035H14.1091V6.9348H14.1373L15.6547 9.14035H16.5516V5.05641Z" fill="#6A6A6A"/>
<path d="M8.8749 14.7724L9.11745 13.9714H10.4853L10.7307 14.7724H11.8871L10.5333 10.6885H9.07232L7.71289 14.7724H8.8749ZM9.36565 13.1591L9.78307 11.7884H9.81691L10.2371 13.1591H9.36565Z" fill="#6A6A6A"/>
<path d="M13.365 10.6885H12.2932V14.7724H13.365V10.6885Z" fill="#6A6A6A"/>
<path d="M13.9178 14.7724H14.9895V13.413H15.4098L16.1346 14.7724H17.3023L16.4674 13.2409C16.9074 13.0322 17.1669 12.6346 17.1669 12.0705C17.1669 11.2074 16.569 10.6885 15.6551 10.6885H13.9178V14.7724ZM14.9895 12.5725V11.5459H15.4069C15.8103 11.5487 16.0472 11.7095 16.0444 12.0705C16.0472 12.4258 15.8103 12.5725 15.4069 12.5725H14.9895Z" fill="#6A6A6A"/>
<path d="M5.43191 12.4797H3.14478C3.12183 12.4797 3.09958 12.4741 3.07941 12.4634C3.03524 12.4397 2 11.8663 2 10.0987C2 9.43901 2.23125 8.86662 2.66872 8.44411C3.25189 7.88076 4.05797 7.70201 4.57124 7.7194C5.54423 7.75279 6.92931 8.51226 6.962 10.0952C6.99434 11.6639 5.55745 12.4317 5.49625 12.4637C5.47642 12.4741 5.45417 12.4794 5.43191 12.4794V12.4797ZM3.18269 12.2015H5.39575C5.58875 12.0892 6.71023 11.3815 6.68415 10.1011C6.65529 8.6997 5.42565 8.02716 4.56185 7.9976C4.10317 7.9816 3.38264 8.14157 2.86206 8.64441C2.47467 9.01858 2.2782 9.50821 2.2782 10.099C2.2782 11.553 3.02446 12.1017 3.18269 12.2015Z" fill="#6A6A6A"/>
<path d="M3.29869 7.41018C3.25418 7.41018 3.21036 7.38897 3.18358 7.34932L2.59624 6.48343C2.55312 6.4198 2.56981 6.33321 2.6331 6.29009C2.69674 6.24697 2.78333 6.26366 2.82645 6.32695L3.41379 7.19249C3.45691 7.25613 3.44022 7.34272 3.37693 7.38584C3.35294 7.40218 3.32581 7.40983 3.29904 7.40983L3.29869 7.41018Z" fill="#6A6A6A"/>
<path d="M4.4809 7.30674C4.40404 7.30674 4.3418 7.24449 4.3418 7.16764V6.17865C4.3418 6.1018 4.40404 6.03955 4.4809 6.03955C4.55775 6.03955 4.61999 6.1018 4.61999 6.17865V7.16764C4.61999 7.24449 4.55775 7.30674 4.4809 7.30674Z" fill="#6A6A6A"/>
<path d="M5.70053 7.41034C5.67132 7.41034 5.64176 7.4013 5.61672 7.38217C5.55552 7.33592 5.54335 7.24864 5.5896 7.18743L6.16651 6.42483C6.21276 6.36362 6.30004 6.35145 6.36125 6.3977C6.42245 6.44395 6.43462 6.53124 6.38837 6.59244L5.81146 7.35505C5.78399 7.39121 5.74261 7.41034 5.70053 7.41034Z" fill="#6A6A6A"/>
<path d="M5.8236 10.0482C5.76171 10.0482 5.70537 10.0069 5.68903 9.94427C5.67894 9.90671 5.431 9.01335 4.47609 8.97684C3.53195 8.94067 3.30905 9.76414 3.30035 9.79926C3.28123 9.87368 3.20577 9.91854 3.13135 9.89976C3.05693 9.88098 3.01207 9.80587 3.0305 9.73145C3.03329 9.72067 3.31287 8.65378 4.48687 8.69864C5.65112 8.74315 5.9554 9.8629 5.95853 9.87437C5.978 9.94879 5.93314 10.0246 5.85907 10.0441C5.84725 10.0472 5.83543 10.0486 5.82395 10.0486L5.8236 10.0482Z" fill="#6A6A6A"/>
<path d="M3.94769 12.4797C3.87084 12.4797 3.80859 12.4175 3.80859 12.3406V11.1865C3.80859 11.1096 3.87084 11.0474 3.94769 11.0474C4.02454 11.0474 4.08679 11.1096 4.08679 11.1865V12.3406C4.08679 12.4175 4.02454 12.4797 3.94769 12.4797Z" fill="#6A6A6A"/>
<path d="M4.68988 12.4797C4.61303 12.4797 4.55078 12.4175 4.55078 12.3406V11.1865C4.55078 11.1096 4.61303 11.0474 4.68988 11.0474C4.76673 11.0474 4.82898 11.1096 4.82898 11.1865V12.3406C4.82898 12.4175 4.76673 12.4797 4.68988 12.4797Z" fill="#6A6A6A"/>
<path d="M3.49471 11.5931C3.48984 11.5931 3.48462 11.5931 3.47975 11.5924C3.40325 11.5841 3.34796 11.5156 3.3563 11.4394C3.38238 11.1956 3.62163 10.7401 4.34321 10.7589C5.06165 10.7776 5.28491 11.2151 5.30264 11.4436C5.30855 11.5201 5.25117 11.5868 5.17467 11.5928C5.09851 11.5983 5.0314 11.5413 5.02549 11.4648C5.02131 11.4241 4.96498 11.0534 4.33625 11.0367C3.6884 11.019 3.63519 11.4505 3.63346 11.469C3.62581 11.5403 3.56565 11.5931 3.4954 11.5931H3.49471Z" fill="#6A6A6A"/>
<path d="M5.70063 13.242H3.00629C2.92943 13.242 2.86719 13.1797 2.86719 13.1029V12.3403C2.86719 12.2634 2.92943 12.2012 3.00629 12.2012H5.70063C5.77748 12.2012 5.83973 12.2634 5.83973 12.3403V13.1029C5.83973 13.1797 5.77748 13.242 5.70063 13.242ZM3.14538 12.9638H5.56153V12.4794H3.14538V12.9638Z" fill="#6A6A6A"/>
<path d="M5.67719 14.0047H2.98285C2.906 14.0047 2.84375 13.9424 2.84375 13.8656V13.103C2.84375 13.0261 2.906 12.9639 2.98285 12.9639H5.67719C5.75404 12.9639 5.81629 13.0261 5.81629 13.103V13.8656C5.81629 13.9424 5.75404 14.0047 5.67719 14.0047ZM3.12195 13.7265H5.53809V13.2421H3.12195V13.7265Z" fill="#6A6A6A"/>
<path d="M5.24617 14.7674H3.49457C3.41772 14.7674 3.35547 14.7051 3.35547 14.6283V13.8657C3.35547 13.7888 3.41772 13.7266 3.49457 13.7266H5.24617C5.32302 13.7266 5.38527 13.7888 5.38527 13.8657V14.6283C5.38527 14.7051 5.32302 14.7674 5.24617 14.7674ZM3.63367 14.4892H5.10707V14.0048H3.63367V14.4892Z" fill="#6A6A6A"/>
</svg>
