<svg width="20" height="20" viewBox="0 0 20 20" fill="none" xmlns="http://www.w3.org/2000/svg">
<path d="M5.49269 8.53511C5.38298 8.53511 5.27573 8.56805 5.18457 8.62973C5.09341 8.69141 5.02244 8.77905 4.98065 8.88155C4.93885 8.98405 4.92811 9.09678 4.94981 9.20545C4.9715 9.31412 5.02467 9.41382 5.10253 9.49193C5.18039 9.57003 5.27944 9.62301 5.38714 9.64414C5.49483 9.66527 5.6063 9.65361 5.70742 9.61063C5.80854 9.56765 5.89477 9.49526 5.95514 9.40269C6.0155 9.31012 6.0473 9.20154 6.0465 9.09068C6.0465 9.01738 6.03214 8.94481 6.00426 8.87714C5.97638 8.80947 5.93551 8.74804 5.88403 8.6964C5.83255 8.64476 5.77148 8.6039 5.70431 8.57622C5.63714 8.54855 5.56523 8.53457 5.49269 8.53511Z" fill="#6A6A6A"/>
<path d="M10.9378 8.47795C10.856 8.47111 10.7736 8.4815 10.6959 8.50847C10.6181 8.53544 10.5468 8.57839 10.4864 8.63462C10.4259 8.69086 10.3777 8.75917 10.3447 8.83521C10.3117 8.91124 10.2946 8.99335 10.2946 9.07638C10.2946 9.15941 10.3117 9.24154 10.3447 9.31758C10.3777 9.39362 10.4259 9.4619 10.4864 9.51814C10.5468 9.57438 10.6181 9.61735 10.6959 9.64432C10.7736 9.67129 10.856 9.68168 10.9378 9.67484C11.0865 9.66242 11.225 9.59399 11.326 9.48313C11.427 9.37227 11.4831 9.22708 11.4831 9.07638C11.4831 8.92569 11.427 8.78052 11.326 8.66966C11.225 8.5588 11.0865 8.49037 10.9378 8.47795Z" fill="#6A6A6A"/>
<path d="M15.8616 3H4.13845C3.85728 3 3.57889 3.05603 3.31918 3.16488C3.05947 3.27373 2.82353 3.43329 2.6249 3.63439C2.42627 3.83548 2.26884 4.07416 2.16161 4.33681C2.05438 4.59946 1.99947 4.8809 2 5.16503V12.1912C1.99947 12.4753 2.05438 12.7567 2.16161 13.0194C2.26884 13.282 2.42627 13.5207 2.6249 13.7218C2.82353 13.9229 3.05947 14.0825 3.31918 14.1913C3.57889 14.3002 3.85728 14.3562 4.13845 14.3562H8.27792L9.6847 17.7059C9.6847 17.7059 9.7817 18 10.0162 18C10.2506 18 10.3476 17.7059 10.3476 17.7059L11.7585 14.3562H15.8575C16.4257 14.3562 16.9707 14.1281 17.3725 13.7221C17.7743 13.3161 18 12.7654 18 12.1912V5.16503C18 4.59153 17.7748 4.04149 17.3739 3.63558C16.973 3.22968 16.4291 3.00108 15.8616 3ZM7.02881 9.21324C7.02881 10.5 5.70692 10.5368 5.70692 10.5368C5.55637 10.5392 5.40691 10.5104 5.26784 10.452C5.12877 10.3937 5.00304 10.3071 4.89843 10.1977V10.4265H3.94442V6.43956H4.89843V7.96733C5.12481 7.55883 5.77564 7.58334 5.77564 7.58334C7.20666 7.71406 7.02881 9.21324 7.02881 9.21324ZM8.71451 7.7018V10.4346H7.77666V7.73039C7.77666 7.36275 7.3239 7.26061 7.3239 7.26061V6.30475C7.50935 6.29085 7.69558 6.31738 7.86999 6.38256C8.0444 6.44774 8.20291 6.55002 8.33479 6.6825C8.46666 6.81498 8.5688 6.97458 8.63432 7.15044C8.69983 7.3263 8.72718 7.51433 8.71451 7.7018ZM10.9379 10.5368C10.6566 10.5137 10.3881 10.4083 10.1652 10.2335C9.94229 10.0586 9.77468 9.82192 9.68285 9.5523C9.59102 9.28268 9.57897 8.99187 9.64816 8.71543C9.71736 8.439 9.86482 8.18895 10.0725 7.99588C10.2801 7.80281 10.539 7.67509 10.8173 7.62837C11.0957 7.58165 11.3815 7.61794 11.6397 7.73281C11.898 7.84769 12.1175 8.03616 12.2714 8.27515C12.4253 8.51414 12.507 8.79329 12.5063 9.07843C12.4885 9.48155 12.3135 9.86117 12.0196 10.1344C11.7258 10.4076 11.3369 10.5523 10.9379 10.5368ZM16.0677 10.5368C16.0723 10.7214 16.0393 10.9051 15.9707 11.0764C15.9022 11.2476 15.7995 11.4028 15.6691 11.5322C15.5387 11.6617 15.3833 11.7627 15.2127 11.829C15.0421 11.8952 14.8598 11.9254 14.6771 11.9175H14.2729V11.0188H14.5276C14.5276 11.0188 15.1137 11.0719 15.1056 10.161C15.1056 10.161 14.9924 10.5286 14.1718 10.5286C13.8596 10.512 13.5653 10.3763 13.3484 10.1488C13.1315 9.92127 13.0082 9.61897 13.0035 9.3031V8.86603C13.0189 8.52343 13.1629 8.19961 13.4063 7.96055C13.6496 7.72148 13.974 7.58514 14.3133 7.57925C14.4675 7.56948 14.6217 7.59787 14.7626 7.66193C14.9035 7.72599 15.0268 7.82382 15.1218 7.94691V7.65278H16.0718L16.0677 10.5368Z" fill="#6A6A6A"/>
<path d="M14.5801 8.49018C14.4648 8.48937 14.3519 8.52318 14.2556 8.58732C14.1593 8.65146 14.0841 8.74305 14.0394 8.85046C13.9947 8.95787 13.9826 9.07629 14.0046 9.19066C14.0266 9.30504 14.0817 9.41022 14.163 9.4929C14.2442 9.57557 14.348 9.632 14.461 9.65503C14.574 9.67806 14.6913 9.66665 14.7979 9.62225C14.9045 9.57785 14.9956 9.50248 15.0598 9.40566C15.1239 9.30884 15.1582 9.19493 15.1582 9.07842C15.1587 9.00136 15.1441 8.92497 15.1153 8.85362C15.0865 8.78228 15.044 8.71739 14.9903 8.66272C14.9366 8.60804 14.8727 8.56465 14.8023 8.53504C14.7319 8.50542 14.6563 8.49018 14.5801 8.49018Z" fill="#6A6A6A"/>
</svg>
