<svg width="28" height="28" viewBox="0 0 28 28" fill="none" xmlns="http://www.w3.org/2000/svg">
<path d="M19.25 15.0867V12.2177C19.2487 10.9394 18.8088 9.70274 18.008 8.72683C17.2073 7.75091 16.0974 7.09867 14.875 6.88562V5.90221C14.875 5.66293 14.7828 5.43345 14.6187 5.26425C14.4546 5.09505 14.2321 5 14 5C13.7679 5 13.5454 5.09505 13.3813 5.26425C13.2172 5.43345 13.125 5.66293 13.125 5.90221V6.88562C11.9026 7.09867 10.7927 7.75091 9.99196 8.72683C9.19122 9.70274 8.75126 10.9394 8.75 12.2177V15.0867C8.23939 15.2729 7.79712 15.6173 7.48382 16.0728C7.17052 16.5283 7.00152 17.0725 7 17.6309V19.4354C7 19.6746 7.09219 19.9041 7.25628 20.0733C7.42038 20.2425 7.64294 20.3376 7.875 20.3376H10.6225C10.824 21.1021 11.2639 21.777 11.8743 22.2581C12.4847 22.7393 13.2317 23 14 23C14.7683 23 15.5153 22.7393 16.1257 22.2581C16.7361 21.777 17.176 21.1021 17.3775 20.3376H20.125C20.3571 20.3376 20.5796 20.2425 20.7437 20.0733C20.9078 19.9041 21 19.6746 21 19.4354V17.6309C20.9985 17.0725 20.8295 16.5283 20.5162 16.0728C20.2029 15.6173 19.7606 15.2729 19.25 15.0867ZM10.5 12.2177C10.5 11.2606 10.8687 10.3426 11.5251 9.66585C12.1815 8.98906 13.0717 8.60884 14 8.60884C14.9283 8.60884 15.8185 8.98906 16.4749 9.66585C17.1313 10.3426 17.5 11.2606 17.5 12.2177V14.9243H10.5V12.2177ZM14 21.2398C13.6946 21.2379 13.395 21.1536 13.131 20.9953C12.867 20.8371 12.6477 20.6103 12.495 20.3376H15.505C15.3523 20.6103 15.133 20.8371 14.869 20.9953C14.605 21.1536 14.3054 21.2379 14 21.2398ZM19.25 18.5332H8.75V17.6309C8.75 17.3917 8.84219 17.1622 9.00628 16.993C9.17038 16.8238 9.39294 16.7287 9.625 16.7287H18.375C18.6071 16.7287 18.8296 16.8238 18.9937 16.993C19.1578 17.1622 19.25 17.3917 19.25 17.6309V18.5332Z" fill="white"/>
</svg>
