<svg width="28" height="28" viewBox="0 0 28 28" fill="none" xmlns="http://www.w3.org/2000/svg">
<path d="M22.9249 13.65C21.1075 9.54625 17.6887 7 14 7C10.3113 7 6.89248 9.54625 5.07511 13.65C5.02557 13.7604 5 13.8795 5 14C5 14.1205 5.02557 14.2396 5.07511 14.35C6.89248 18.4537 10.3113 21 14 21C17.6887 21 21.1075 18.4537 22.9249 14.35C22.9744 14.2396 23 14.1205 23 14C23 13.8795 22.9744 13.7604 22.9249 13.65ZM14 19.25C11.139 19.25 8.44893 17.2463 6.89248 14C8.44893 10.7537 11.139 8.75 14 8.75C16.861 8.75 19.5511 10.7537 21.1075 14C19.5511 17.2463 16.861 19.25 14 19.25ZM14 10.5C13.2882 10.5 12.5925 10.7053 12.0006 11.0899C11.4088 11.4744 10.9476 12.0211 10.6752 12.6606C10.4028 13.3001 10.3315 14.0039 10.4704 14.6828C10.6093 15.3617 10.952 15.9854 11.4553 16.4749C11.9586 16.9644 12.5998 17.2977 13.2979 17.4327C13.996 17.5678 14.7196 17.4985 15.3772 17.2336C16.0348 16.9687 16.5968 16.5201 16.9922 15.9445C17.3877 15.3689 17.5987 14.6922 17.5987 14C17.5987 13.0717 17.2196 12.1815 16.5447 11.5251C15.8698 10.8687 14.9544 10.5 14 10.5ZM14 15.75C13.6441 15.75 13.2962 15.6474 13.0003 15.4551C12.7044 15.2628 12.4738 14.9895 12.3376 14.6697C12.2014 14.3499 12.1658 13.9981 12.2352 13.6586C12.3046 13.3191 12.476 13.0073 12.7277 12.7626C12.9793 12.5178 13.2999 12.3511 13.649 12.2836C13.998 12.2161 14.3598 12.2508 14.6886 12.3832C15.0174 12.5157 15.2984 12.74 15.4961 13.0278C15.6938 13.3155 15.7994 13.6539 15.7994 14C15.7994 14.4641 15.6098 14.9092 15.2723 15.2374C14.9349 15.5656 14.4772 15.75 14 15.75Z" fill="white"/>
</svg>
